<?xml version="1.0" standalone="no"?>
<!DOCTYPE svg PUBLIC "-//W3C//DTD SVG 1.1//EN" "http://www.w3.org/Graphics/SVG/1.1/DTD/svg11.dtd" >
<svg xmlns="http://www.w3.org/2000/svg">
  <metadata>Created by iconfont</metadata>
  <defs>
  <font id="iconfont" horiz-adv-x="1024">
    <font-face
      font-family="iconfont"
      font-weight="400"
      font-stretch="normal"
      units-per-em="1024"
      ascent="896"
      descent="-128"
    />
      <missing-glyph />
      
      <glyph glyph-name="notice-bell-fill" unicode="&#59018;" d="M798.048 452.48c0 222.08-119.456 297.632-231.2 314.496 0 1.152 0.224 2.272 0.224 3.648 0 28-24.8 50.304-55.072 50.304s-54.144-22.304-54.144-50.304c0-1.376 0-2.496 0.224-3.648-111.968-17.056-232.096-92.832-232.096-314.944 0-258.944-64.384-286.72-150.88-359.552h873.824c-86.016 73.056-150.88 101.024-150.88 360z m-285.6-505.376c60.992 0 111.04 45.28 117.632 97.856h-235.296c6.368-52.576 56.672-97.856 117.632-97.856z"  horiz-adv-x="1024" />
      
      <glyph glyph-name="weibiaoti-1_lianjie" unicode="&#58904;" d="M524.629333-128H226.167467A226.5088 226.5088 0 0 0-0.068267 98.235733V396.6976A226.5088 226.5088 0 0 0 226.167467 622.933333h128.4096a41.642667 41.642667 0 0 0 0-83.285333H226.167467a143.086933 143.086933 0 0 1-142.9504-142.9504v-298.461867c0-78.848 64.170667-142.882133 142.9504-142.882133h298.461866A143.086933 143.086933 0 0 1 667.648 98.235733V396.6976a143.086933 143.086933 0 0 1-142.9504 142.882133h-32.5632a41.642667 41.642667 0 0 0 0 83.3536h32.5632A226.5088 226.5088 0 0 0 750.933333 396.6976v-298.461867A226.440533 226.440533 0 0 0 524.629333-128zM866.030933 145.066667H755.029333a41.642667 41.642667 0 0 0 0 83.285333h111.0016a143.018667 143.018667 0 0 1 142.882134 142.9504V669.764267a143.018667 143.018667 0 0 1-142.882134 142.882133H567.569067a143.018667 143.018667 0 0 1-142.882134-142.882133v-298.461867c0-78.848 64.034133-142.882133 142.882134-142.882133h27.511466a41.642667 41.642667 0 0 0 0-83.3536h-27.511466A226.5088 226.5088 0 0 0 341.333333 371.3024V669.764267A226.5088 226.5088 0 0 0 567.569067 896h298.461866A226.5088 226.5088 0 0 0 1092.266667 669.764267v-298.461867A226.5088 226.5088 0 0 0 866.030933 145.066667z"  horiz-adv-x="1092" />
      
      <glyph glyph-name="debug" unicode="&#58900;" d="M302 487v-242.476c0-120.95 98.05-219 219-219s219 98.05 219 219V487H302z m-60 60h558v-302.476c0-154.088-124.913-279-279-279s-279 124.912-279 279V547zM491 402h60v-411.541h-60z m-215-29v-60H85v60z m669 0v-60H754v60zM737 598.063h-60c0 85.88-69.62 155.5-155.5 155.5S366 683.943 366 598.063h-60c0 119.017 96.483 215.5 215.5 215.5S737 717.08 737 598.063z m17-452.231v68.963a384.623 384.623 0 0 0 28.741-16.209C857.076 152.27099999999996 901 87.56600000000003 901 16.5h-60c0 48.778-32.84 94.694-87 129.332z m-461 9.557c-63.624-35.498-103-85.478-103-138.889h-60c0 71.066 43.924 135.77 118.259 182.086 14.032 8.743 28.992 16.736 44.741 23.935v-67.132zM188 642v-55c0-22.091 17.909-40 40-40h573c22.091 0 40 17.909 40 40v55h60v-55c0-55.228-44.772-100-100-100H228c-55.228 0-100 44.772-100 100v55h60z"  horiz-adv-x="1024" />
      
      <glyph glyph-name="common-add" unicode="&#58899;" d="M853.333333 341.33333300000004L554.666667 341.33333300000004 554.666667 42.66666699999996 469.333333 42.66666699999996 469.333333 341.33333300000004 170.666667 341.33333300000004 170.666667 426.666667 469.333333 426.666667 469.333333 725.333333 554.666667 725.333333 554.666667 426.666667 853.333333 426.666667 853.333333 341.33333300000004Z"  horiz-adv-x="1024" />
      
      <glyph glyph-name="user-account-add" unicode="&#59063;" d="M146.752 72.064l177.92 207.584c20.96-13.344 45.088-24.928 70.592-33.536l2.368-0.704-191.904-223.904h400.704v-77.664H205.728a77.664 77.664 0 0 0-58.88 128.32l-0.096-0.096 177.92 207.584z m692.704 156.576v-103.552h103.552v-77.664h-103.552v-103.552h-77.664v103.552H658.24v77.664h103.552v103.552h77.664zM502.88 824.128c143.008 0 258.912-115.904 258.912-258.912s-115.904-258.912-258.912-258.912-258.912 115.904-258.912 258.912 115.904 258.912 258.912 258.912z m0-77.664a181.248 181.248 0 0 1 0-362.496 181.248 181.248 0 0 1 0 362.496z"  horiz-adv-x="1024" />
      
      <glyph glyph-name="search" unicode="&#58954;" d="M694.857143 718.342857c-142.822857 142.822857-374.377143 142.822857-517.2 0-142.822857-142.822857-142.822857-374.377143 0-517.2 125.108571-125.108571 318.308571-140.617143 460.297143-46.537143l212.057143-212.057143 103.44 103.44-212.057143 212.057143c94.08 141.988571 78.571429 335.188571-46.537143 460.297143z m5.028571-365.68c-14.285714-35.234286-35.314286-66.88-62.491428-94.057143-27.177143-27.177143-58.822857-48.205714-94.057143-62.491428-34.068571-13.817143-70.102857-20.822857-107.074286-20.822857-36.982857 0-73.005714 7.005714-107.074286 20.822857-35.234286 14.285714-66.88 35.314286-94.057142 62.491428-27.177143 27.177143-48.205714 58.822857-62.491429 94.057143-13.817143 34.068571-20.822857 70.102857-20.822857 107.074286 0 36.982857 7.005714 73.005714 20.822857 107.074286 14.285714 35.234286 35.314286 66.88 62.491429 94.057142 27.177143 27.177143 58.822857 48.205714 94.057142 62.491429 34.068571 13.817143 70.102857 20.822857 107.074286 20.822857 36.982857 0 73.005714-7.005714 107.074286-20.822857 35.234286-14.285714 66.88-35.314286 94.057143-62.491429 27.177143-27.177143 48.205714-58.822857 62.491428-94.057142 13.817143-34.068571 20.822857-70.102857 20.822857-107.074286-0.011429-36.971429-7.017143-73.005714-20.822857-107.074286z"  horiz-adv-x="1024" />
      
      <glyph glyph-name="shareview" unicode="&#59136;" d="M768.704 192.38400000000001c-35.648 0-67.904-14.72-91.136-38.304l-309.152 171.712c9.056 17.568 14.688 37.184 14.688 58.272 0 12.576-2.368 24.48-5.76 35.936l304.608 189.152c22.688-20.416 52.384-33.184 85.216-33.184 70.592 0 128 57.408 128 128s-57.408 128-128 128-128-57.408-128-128c0-14.56 2.976-28.352 7.456-41.408l-301.824-187.392c-23.136 22.784-54.784 36.928-89.728 36.928-70.592 0-128-57.408-128-128 0-70.592 57.408-128 128-128 25.664 0 49.504 7.744 69.568 20.8l321.216-178.4c-3.04-10.944-5.184-22.208-5.184-34.08 0-70.592 57.408-128 128-128s128 57.408 128 128S839.328 192.38400000000001 768.704 192.38400000000001zM767.2 767.968c35.296 0 64-28.704 64-64s-28.704-64-64-64-64 28.704-64 64S731.904 767.968 767.2 767.968zM191.136 384.064c0 35.296 28.704 64 64 64s64-28.704 64-64c0-35.296-28.704-64-64-64S191.136 348.76800000000003 191.136 384.064zM768.704 0.38400000000001455c-35.296 0-64 28.704-64 64s28.704 64 64 64 64-28.704 64-64S804 0.38400000000001455 768.704 0.38400000000001455z"  horiz-adv-x="1024" />
      
      <glyph glyph-name="share" unicode="&#59137;" d="M320.544 458.032a16 16 0 0 0 16-16v-16a16 16 0 0 0-16-16H240v-256h539.04v256H688a16 16 0 0 0-16 16v16a16 16 0 0 0 16 16h123.04a16 16 0 0 0 16-16v-320a16 16 0 0 0-16-16H208a16 16 0 0 0-16 16v320a16 16 0 0 0 16 16z m201.92 194.576l135.104-105.44a16 16 0 0 0 2.768-22.448l-9.856-12.608a16 16 0 0 0-22.464-2.752L536.96 580.48l-0.768-274.56a16 16 0 0 0-14.176-15.872l-1.856-0.096-16 0.048a16 16 0 0 0-15.968 16.048l0.768 276.528-94.208-71.008a16 16 0 0 0-21.12 1.6l-1.28 1.536-9.616 12.752a16 16 0 0 0 3.136 22.4l0.032 0.032 137.136 102.88a16 16 0 0 0 19.456-0.16z"  horiz-adv-x="1024" />
      
      <glyph glyph-name="portal" unicode="&#59599;" d="M809.224402 772.400984H212.689077c-82.023108 0-149.133575-67.109444-149.133576-149.133575v-298.268174c0-82.024132 67.110467-149.134599 149.133576-149.134599H809.224402c82.023108 0 149.134599 67.109444 149.134599 149.134599V623.267409c0 82.024132-67.110467 149.133575-149.134599 149.133575z m89.480964-447.400726c0-49.333592-40.146349-89.479941-89.479941-89.479941h-596.536348c-49.332569 0-89.479941 40.146349-89.479941 89.479941V623.267409c0 49.332569 40.147372 89.479941 89.479941 89.47994H809.224402c49.333592 0 89.479941-40.147372 89.47994-89.47994v-298.267151zM839.051731 56.558389H630.264521c0 32.809243-26.844392 59.653635-59.653635 59.653635h-119.30727c-32.809243 0-59.653635-26.844392-59.653635-59.653635H182.862771c-16.404622 0-29.827329-13.421684-29.827329-29.826305s13.422707-29.826306 29.827329-29.826306h656.18896c16.404622 0 29.827329 13.421684 29.827329 29.826306s-13.422707 29.826306-29.827329 29.826305z"  horiz-adv-x="1024" />
      
      <glyph glyph-name="new" unicode="&#58994;" d="M914.208 611.808H110.816c-34.112 0-61.792-26.592-61.792-59.392v-237.696c0-32.8 27.712-59.392 61.792-59.392h51.2l-6.016-98.912 203.808 98.912h554.496c34.112 0 61.792 26.592 61.792 59.392V552.32c-0.096 32.896-27.808 59.488-61.888 59.488zM162.912 539.712h69.216l71.712-123.808v123.808h51.616v-216.096H301.152l-86.592 150.688v-150.592H162.976zM552.896 498.4h-95.808v-37.792h88.288v-41.184h-88.288v-54.592h95.808v-41.088h-151.904v216h151.904zM824 323.616h-61.792l-36.096 133.6-35.008-133.6h-61.888l-56.896 216.096h58.592l30.912-144.992 37.696 144.992h56l35.808-144.992 32.608 144.992h56.992z"  horiz-adv-x="1024" />
      
      <glyph glyph-name="shanchu_dakai_fill" unicode="&#59191;" d="M829.44 450.56c-1.536 0-3.072 0-4.608-0.512-2.048 0-3.584 0.512-5.632 0.512H225.28c-2.048 0-3.584 0-5.632-0.512-1.536 0.512-3.072 0.512-4.608 0.512-22.528 0-40.96-18.432-40.96-40.96v-399.36c0-56.32 46.08-102.4 102.4-102.4h491.52c56.32 0 102.4 46.08 102.4 102.4V409.6c0 22.528-18.432 40.96-40.96 40.96z m-356.352-335.36c0-22.528-18.432-40.96-40.96-40.96s-40.96 18.432-40.96 40.96v179.712c0 22.528 18.432 40.96 40.96 40.96s40.96-18.432 40.96-40.96v-179.712z m180.224 0c0-22.528-18.432-40.96-40.96-40.96s-40.96 18.432-40.96 40.96v179.712c0 22.528 18.432 40.96 40.96 40.96s40.96-18.432 40.96-40.96v-179.712zM203.776 532.992L801.28 675.84c22.016 5.12 35.328 27.648 30.208 49.152-5.12 22.016-27.648 35.328-49.152 30.208L665.6 727.552l-14.848 61.952c-11.776 49.152-61.952 79.872-111.104 68.096l-184.32-44.032c-49.152-11.776-79.872-61.952-68.096-111.104l14.848-61.44-117.248-28.16c-22.016-5.12-35.328-27.648-30.208-49.152 5.12-22.016 27.136-35.84 49.152-30.72z"  horiz-adv-x="1024" />
      
      <glyph glyph-name="shanchu-dakai" unicode="&#58992;" d="M203.776 532.992L801.28 675.84c22.016 5.12 35.328 27.648 30.208 49.152-5.12 22.016-27.648 35.328-49.152 30.208L665.6 727.552l-14.848 61.952c-11.776 49.152-61.952 79.872-111.104 68.096l-184.32-44.032c-49.152-11.776-79.872-61.952-68.096-111.104l14.848-61.44-117.248-28.16c-22.016-5.12-35.328-27.648-30.208-49.152 5.12-22.016 27.136-35.84 49.152-30.72z m170.496 200.704l184.32 44.032c5.632 1.536 11.264-2.048 12.288-7.68l14.848-61.952-204.288-48.64-14.848 61.952c-1.024 5.632 2.048 11.264 7.68 12.288zM391.168 294.91200000000003v-179.712c0-22.528 18.432-40.96 40.96-40.96s40.96 18.432 40.96 40.96v179.712c0 22.528-18.432 40.96-40.96 40.96s-40.96-18.432-40.96-40.96zM571.392 294.91200000000003v-179.712c0-22.528 18.432-40.96 40.96-40.96s40.96 18.432 40.96 40.96v179.712c0 22.528-18.432 40.96-40.96 40.96-23.04 0-40.96-18.432-40.96-40.96zM829.44 450.56c-22.528 0-40.96-18.432-40.96-40.96v-358.4c0-33.792-27.648-61.44-61.44-61.44H317.44c-33.792 0-61.44 27.648-61.44 61.44V409.6c0 22.528-18.432 40.96-40.96 40.96s-40.96-18.432-40.96-40.96v-358.4c0-78.848 64.512-143.36 143.36-143.36h409.6c78.848 0 143.36 64.512 143.36 143.36V409.6c0 22.528-18.432 40.96-40.96 40.96z"  horiz-adv-x="1024" />
      
      <glyph glyph-name="shouqi" unicode="&#58892;" d="M890.2 781H133.8c-20.9 0-37.8-16.9-37.8-37.8v-37.8c0-20.9 16.9-37.8 37.8-37.8h756.4c20.9 0 37.8 16.9 37.8 37.8v37.8c0 20.9-16.9 37.8-37.8 37.8zM890.2 440.7H398.5c-20.9 0-37.8-16.9-37.8-37.8v-37.8c0-20.9 16.9-37.8 37.8-37.8h491.6c20.9 0 37.8 16.9 37.8 37.8v37.8c0.1 20.9-16.8 37.8-37.7 37.8zM890.2 100.4H133.8c-20.9 0-37.8-16.9-37.8-37.8v-37.8c0-20.9 16.9-37.8 37.8-37.8h756.4c20.9 0 37.8 16.9 37.8 37.8v37.8c0 20.9-16.9 37.8-37.8 37.8zM266.2 295.3V472.7c0 22-29.2 33.1-46.2 17.5l-97.1-88.7c-10.6-9.7-10.6-25.3 0-35l97.1-88.7c17-15.5 46.2-4.5 46.2 17.5z"  horiz-adv-x="1024" />
      
      <glyph glyph-name="zhankai" unicode="&#58894;" d="M133.8 781h756.4c20.9 0 37.8-16.9 37.8-37.8v-37.8c0-20.9-16.9-37.8-37.8-37.8H133.8c-20.9 0-37.8 16.9-37.8 37.8v37.8c0 20.9 16.9 37.8 37.8 37.8zM133.8 440.7h491.6c20.9 0 37.8-16.9 37.8-37.8v-37.8c0-20.9-16.9-37.8-37.8-37.8H133.8c-20.9 0-37.8 16.9-37.8 37.8v37.8c0 20.9 16.9 37.8 37.8 37.8zM133.8 100.4h756.4c20.9 0 37.8-16.9 37.8-37.8v-37.8c0-20.9-16.9-37.8-37.8-37.8H133.8c-20.9 0-37.8 16.9-37.8 37.8v37.8c0 20.9 16.9 37.8 37.8 37.8zM757.8 295.3V472.7c0 22 29.2 33.1 46.2 17.5l97.1-88.7c10.6-9.7 10.6-25.3 0-35L804 277.9c-17-15.6-46.2-4.6-46.2 17.4z"  horiz-adv-x="1024" />
      
      <glyph glyph-name="userGroup2" unicode="&#962998;" d="M512 741.888c0 0.512 0 0.512 0 0zM512.512 741.888h1.024s-5.632-0.512-1.024 0zM220.16 102.39999999999998c0 72.704 34.816 137.216 88.064 178.688H199.68c-96.256 0-174.08-77.824-174.08-174.08v-32.768c0-45.056 36.864-81.92 81.92-81.92h115.2c-2.048 9.216-2.56 18.432-2.56 28.16v81.92zM352.256 335.36c39.424 0 76.288 11.264 107.52 30.208C389.12 418.816 343.04 503.808 343.04 599.04c0 52.224 13.824 101.376 37.888 143.872-9.216 1.536-18.944 2.048-28.672 2.048-113.152 0-204.8-91.648-204.8-204.8s91.648-204.8 204.8-204.8zM640 599.04m-230.4 0a230.4 230.4 0 1 1 460.8 0 230.4 230.4 0 1 1-460.8 0ZM834.56 266.24H445.44c-90.624 0-163.84-73.216-163.84-163.84v-81.92c0-45.056 36.864-81.92 81.92-81.92h552.96c45.056 0 81.92 36.864 81.92 81.92v81.92c0 90.112-73.216 163.84-163.84 163.84z"  horiz-adv-x="1024" />
      
      <glyph glyph-name="Vue3_date-filled1" unicode="&#59014;" d="M870.4 721.408h-144.384v51.2c0 22.528-18.432 40.96-40.96 40.96s-40.96-18.432-40.96-40.96v-51.2H379.904v51.2c0 22.528-18.432 40.96-40.96 40.96s-40.96-18.432-40.96-40.96v-51.2H153.6c-56.32 0-102.4-46.08-102.4-102.4v-563.2c0-56.32 46.08-102.4 102.4-102.4h716.8c56.32 0 102.4 46.08 102.4 102.4v563.2c0 56.832-46.08 102.4-102.4 102.4zM338.432 118.27200000000005h-51.2c-22.528 0-40.96 18.432-40.96 40.96s18.432 40.96 40.96 40.96h51.2c22.528 0 40.96-18.432 40.96-40.96s-17.92-40.96-40.96-40.96z m0 143.872h-51.2c-22.528 0-40.96 18.432-40.96 40.96s18.432 40.96 40.96 40.96h51.2c22.528 0 40.96-18.432 40.96-40.96s-17.92-40.96-40.96-40.96z m199.168-143.872H486.4c-22.528 0-40.96 18.432-40.96 40.96s18.432 40.96 40.96 40.96h51.2c22.528 0 40.96-18.432 40.96-40.96s-18.432-40.96-40.96-40.96z m0 143.872H486.4c-22.528 0-40.96 18.432-40.96 40.96s18.432 40.96 40.96 40.96h51.2c22.528 0 40.96-18.432 40.96-40.96s-18.432-40.96-40.96-40.96z m199.168-143.872h-51.2c-22.528 0-40.96 18.432-40.96 40.96s18.432 40.96 40.96 40.96h51.2c22.528 0 40.96-18.432 40.96-40.96s-18.432-40.96-40.96-40.96z m0 143.872h-51.2c-22.528 0-40.96 18.432-40.96 40.96s18.432 40.96 40.96 40.96h51.2c22.528 0 40.96-18.432 40.96-40.96s-18.432-40.96-40.96-40.96zM890.88 502.272H133.12V619.008c0 11.264 9.216 20.48 20.48 20.48h144.384v-20.48c0-22.528 18.432-40.96 40.96-40.96s40.96 18.432 40.96 40.96v20.48h264.192v-20.48c0-22.528 18.432-40.96 40.96-40.96s40.96 18.432 40.96 40.96v20.48H870.4c11.264 0 20.48-9.216 20.48-20.48v-116.736z"  horiz-adv-x="1024" />
      
      <glyph glyph-name="yinhao" unicode="&#58880;" d="M92.16 36.351999999999975v192.512c0 100.864 12.288 183.296 36.352 247.808C153.088 541.184 194.56 596.48 253.44 641.5360000000001 312.32 686.592 378.368 716.288 451.584 731.648v-154.112C399.36 547.8399999999999 369.664 507.392 363.008 456.704h89.088v-420.352H92.16z m480.256 0v192.512c0 100.864 12.288 183.296 36.352 247.808 24.064 64.512 65.536 119.296 123.904 164.352 58.368 45.056 124.928 75.264 199.168 90.112v-154.112c-52.224-30.208-81.92-70.144-89.088-120.832H931.84V35.84000000000003h-359.424z"  horiz-adv-x="1024" />
      
      <glyph glyph-name="Vue3_print-filled" unicode="&#59066;" d="M716.8 409.6H307.2c-28.16 0-51.2-23.04-51.2-51.2v-307.2c0-56.32 46.08-102.4 102.4-102.4h307.2c56.32 0 102.4 46.08 102.4 102.4v307.2c0 28.16-23.04 51.2-51.2 51.2zM870.4 819.2H153.6c-56.32 0-102.4-46.08-102.4-102.4v-409.6c0-56.32 46.08-102.4 102.4-102.4h51.2V409.6c0 28.16 23.04 51.2 51.2 51.2h512c28.16 0 51.2-23.04 51.2-51.2v-204.8h51.2c56.32 0 102.4 46.08 102.4 102.4V716.8c0 56.32-46.08 102.4-102.4 102.4zM391.68 573.952H251.392c-22.528 0-40.96 18.432-40.96 40.96s18.432 40.96 40.96 40.96h140.288c22.528 0 40.96-18.432 40.96-40.96s-18.432-40.96-40.96-40.96z"  horiz-adv-x="1024" />
      
      <glyph glyph-name="Vue3_screen-filled" unicode="&#59096;" d="M655.36-15.360000000000014V422.4l204.8 265.728 1.024 1.024c20.992 29.696 23.04 68.096 4.608 99.84-16.896 28.672-48.64 45.568-81.92 45.568H240.128c-33.28 0-65.024-16.896-81.92-45.568-18.432-31.744-16.384-70.144 4.608-99.84L368.64 422.4v-333.312l205.824-146.432c33.792-23.552 80.896 0.512 80.896 41.984zM837.632 394.752h-113.152c-22.528 0-40.96-18.432-40.96-40.96s18.432-40.96 40.96-40.96h113.152c22.528 0 40.96 18.432 40.96 40.96s-18.432 40.96-40.96 40.96zM837.632 234.49599999999998h-113.152c-22.528 0-40.96-18.432-40.96-40.96s18.432-40.96 40.96-40.96h113.152c22.528 0 40.96 18.432 40.96 40.96s-18.432 40.96-40.96 40.96zM837.632 74.24000000000001h-113.152c-22.528 0-40.96-18.432-40.96-40.96s18.432-40.96 40.96-40.96h113.152c22.528 0 40.96 18.432 40.96 40.96s-18.432 40.96-40.96 40.96z"  horiz-adv-x="1024" />
      
      <glyph glyph-name="Vue3_share-filled" unicode="&#59104;" d="M768 296.96000000000004c-53.76 0-101.888-25.6-133.12-65.024l-212.48 122.88c1.536 9.216 2.56 18.944 2.56 29.184s-1.024 19.968-2.56 29.696c1.024 0.512 2.048 1.024 2.56 1.536l209.92 121.344C665.6 496.64 713.728 471.04 768 471.04c93.184 0 168.96 75.776 168.96 168.96s-75.776 168.96-168.96 168.96-168.96-75.776-168.96-168.96c0-9.728 1.024-19.456 2.56-28.672l-212.992-122.88C357.376 527.8720000000001 309.76 552.96 256 552.96c-93.184 0-168.96-75.776-168.96-168.96s75.776-168.96 168.96-168.96c53.76 0 101.888 25.6 132.608 64.512l212.992-122.88c-1.536-9.216-2.56-18.944-2.56-28.672 0-93.184 75.776-168.96 168.96-168.96s168.96 75.776 168.96 168.96-75.776 168.96-168.96 168.96z"  horiz-adv-x="1024" />
      
      <glyph glyph-name="Vue3_delete-filled" unicode="&#59134;" d="M819.2 527.36c-1.536 0-3.072 0-4.608-0.512-2.048 0-3.584 0.512-5.632 0.512H215.04c-2.048 0-3.584 0-5.632-0.512-1.536 0.512-3.072 0.512-4.608 0.512-22.528 0-40.96-18.432-40.96-40.96v-450.56c0-56.32 46.08-102.4 102.4-102.4h491.52c56.32 0 102.4 46.08 102.4 102.4V486.4c0 22.528-18.432 40.96-40.96 40.96z m-258.048-155.648c0 22.528 18.432 40.96 40.96 40.96s40.96-18.432 40.96-40.96v-230.912c0-22.528-18.432-40.96-40.96-40.96s-40.96 18.432-40.96 40.96v230.912z m-180.224 0c0 22.528 18.432 40.96 40.96 40.96s40.96-18.432 40.96-40.96v-230.912c0-22.528-18.432-40.96-40.96-40.96s-40.96 18.432-40.96 40.96v230.912zM204.8 596.992h614.4c22.528 0 40.96 18.432 40.96 40.96s-18.432 40.96-40.96 40.96h-120.32V742.4c0 50.688-41.472 92.16-92.16 92.16h-189.44c-50.688 0-92.16-41.472-92.16-92.16v-63.488H204.8c-22.528 0-40.96-18.432-40.96-40.96s18.432-40.96 40.96-40.96z"  horiz-adv-x="1024" />
      
      <glyph glyph-name="Vue3_feedback-filled" unicode="&#59135;" d="M870.4 778.24H153.6c-56.32 0-102.4-46.08-102.4-102.4v-512c0-56.32 46.08-102.4 102.4-102.4h212.992l112.128-95.232c18.944-16.384 47.104-16.384 66.048 0l112.128 95.232H870.4c56.32 0 102.4 46.08 102.4 102.4V675.84c0 56.832-46.08 102.4-102.4 102.4zM302.08 353.79200000000003c-36.864 0-66.56 29.696-66.56 66.56s29.696 66.56 66.56 66.56 66.56-29.696 66.56-66.56c0-36.352-29.696-66.56-66.56-66.56z m209.92 0c-36.864 0-66.56 29.696-66.56 66.56s29.696 66.56 66.56 66.56 66.56-29.696 66.56-66.56c0-36.352-29.696-66.56-66.56-66.56z m209.92 0c-36.864 0-66.56 29.696-66.56 66.56s29.696 66.56 66.56 66.56 66.56-29.696 66.56-66.56c0-36.352-29.696-66.56-66.56-66.56z"  horiz-adv-x="1024" />
      
      <glyph glyph-name="Vue3_notice-filled" unicode="&#59143;" d="M622.592 34.303999999999974H401.408c-7.168 0-12.288-7.168-9.728-13.824 17.92-49.152 65.024-84.48 120.32-84.48s102.4 35.328 120.32 84.48c2.56 6.656-2.56 13.824-9.728 13.824zM834.56 323.072V450.048c0 126.464-75.264 241.664-188.928 293.888C624.128 797.184 571.392 834.56 512 834.56s-112.128-37.376-133.632-91.136C264.704 691.712 189.44 576 189.44 450.048v-126.976c-62.464-2.56-112.64-54.272-112.64-117.76 0-65.024 52.736-117.76 117.76-117.76h634.88c65.024 0 117.76 52.736 117.76 117.76 0 63.488-50.176 115.2-112.64 117.76z"  horiz-adv-x="1024" />
      
      <glyph glyph-name="baocun" unicode="&#59598;" d="M804.8 777.6h-67.2v-326.4c0-42.24-34.56-76.8-76.8-76.8H363.2c-42.24 0-76.8 34.56-76.8 76.8V777.6H219.2c-42.24 0-76.8-34.56-76.8-76.8v-633.6c0-42.24 34.56-76.8 76.8-76.8h585.6c42.24 0 76.8 34.56 76.8 76.8V700.8c0 42.24-34.56 76.8-76.8 76.8z m-196.8-627.84H416c-21.12 0-38.4 17.28-38.4 38.4s17.28 38.4 38.4 38.4h192c21.12 0 38.4-17.28 38.4-38.4s-17.28-38.4-38.4-38.4zM401.6 451.2h220.8c21.12 0 38.4 17.28 38.4 38.4V777.6H363.2v-288c0-21.12 17.28-38.4 38.4-38.4z m123.36 171.36c0 20.64 15.36 38.4 36 39.84 22.56 1.44 40.8-16.32 40.8-38.4v-96c0-22.08-18.72-39.84-40.8-38.4-20.64 1.44-36 19.2-36 39.84V622.56z"  horiz-adv-x="1024" />
      
      <glyph glyph-name="yuyanqiehuan1" unicode="&#59597;" d="M352.768 415.744c11.264 0 19.968 9.216 19.968 19.968V501.76h74.752c12.8 0 23.552 10.24 23.552 23.552V619.008c0 12.8-10.24 23.552-23.552 23.552H373.248v29.184c0 10.752-8.704 19.456-19.456 19.968-11.264 0.512-20.992-8.704-20.992-19.968v-29.184H256c-12.8 0-23.552-10.24-23.552-23.552v-93.696c0-12.8 10.24-23.552 23.552-23.552h76.8v-65.536c0-11.264 9.216-20.48 19.968-20.48z m20.48 187.392h57.856v-62.976H373.248V603.136zM273.408 540.1600000000001V603.136H332.8v-62.976H273.408zM676.352 279.552l-28.16-80.896h59.392l-27.648 80.896zM878.592 488.96h-244.224V747.52c0 45.056-36.864 81.92-81.92 81.92H151.552c-45.056 0-81.92-36.864-81.92-81.92v-386.56c0-45.056 36.864-81.92 81.92-81.92h244.224V20.480000000000018c0-45.056 36.864-81.92 81.92-81.92h400.896c45.056 0 81.92 36.864 81.92 81.92V407.04c0 45.568-36.864 81.92-81.92 81.92z m-326.144-128H151.552V747.52h400.896v-386.56zM737.28 112.63999999999999l-16.384 47.616h-86.528l-16.384-47.616c-1.024-3.072-4.096-5.632-7.68-5.632h-31.232c-5.632 0-9.728 5.632-7.68 10.752l71.168 190.464c2.56 7.168 9.728 11.776 17.408 11.776h37.376c7.68 0 14.336-4.608 17.408-11.776l70.656-190.464c2.048-5.12-2.048-10.752-7.68-10.752h-32.256c-4.096 0-7.168 2.56-8.192 5.632z"  horiz-adv-x="1030" />
      
      <glyph glyph-name="gerenxinxi" unicode="&#59596;" d="M921.6 291.328h-307.2c-19.968 0-35.84-15.872-35.84-35.84s15.872-35.84 35.84-35.84h307.2c19.968 0 35.84 15.872 35.84 35.84 0 19.456-15.872 35.84-35.84 35.84zM921.6 146.94399999999996h-307.2c-19.968 0-35.84-15.872-35.84-35.84s15.872-35.84 35.84-35.84h307.2c19.968 0 35.84 15.872 35.84 35.84 0 19.456-15.872 35.84-35.84 35.84zM921.6 5.1200000000000045h-307.2c-19.968 0-35.84-15.872-35.84-35.84s15.872-35.84 35.84-35.84h307.2c19.968 0 35.84 15.872 35.84 35.84s-15.872 35.84-35.84 35.84zM747.008 599.552c0 129.536-105.472 235.008-235.008 235.008-129.536 0-235.008-105.472-235.008-235.008 0-129.536 105.472-235.008 235.008-235.008 129.536 0.512 235.008 105.984 235.008 235.008zM512 452.096c-81.408 0-147.456 66.048-147.456 147.456S430.592 747.008 512 747.008s147.456-66.048 147.456-147.456-66.048-147.456-147.456-147.456zM442.88 293.88800000000003H241.152C145.408 293.88800000000003 66.56 215.03999999999996 66.56 119.29600000000005V10.240000000000009c0-41.984 34.304-76.288 76.288-76.288h300.032c24.064 0 43.52 19.456 43.52 43.52s-19.456 43.52-43.52 43.52H154.112v98.304c0 48.128 39.424 87.552 87.552 87.552h201.728c24.064 0 43.52 19.456 43.52 43.52s-19.456 43.52-44.032 43.52z"  horiz-adv-x="1024" />
      
      <glyph glyph-name="yuyanqiehuan" unicode="&#59595;" d="M204.8 524.288h87.04v-84.48c2.048-17.92 17.92-29.184 35.84-26.624h4.608c17.92 0 31.232 15.36 29.184 33.28V524.288h87.04c46.592 0 66.56 22.016 66.56 66.56V684.544c0 44.544-19.968 64.512-66.56 64.512h-87.04v31.232c0 15.36-4.608 33.28-35.84 33.28h-6.656c-17.92-2.048-31.232-15.36-29.184-33.28v-31.232H204.8c-46.592 0-66.56-19.968-66.56-64.512v-93.696c-0.512-46.592 19.456-66.56 66.56-66.56z m155.648 158.208h75.776c6.656 0 6.656 0 6.656-6.656v-77.824c0-6.656 0-6.656-6.656-6.656H360.448V682.496zM208.896 675.84c0 6.656 0 6.656 6.656 6.656h73.728v-91.136H215.552c-6.656 0-6.656 0-6.656 6.656V675.84zM645.632 74.24000000000001c-2.048 17.92-15.36 29.184-33.28 29.184H485.376v62.464h109.056c17.92 0 29.184 15.36 29.184 31.232v4.608c-2.048 15.36-17.92 29.184-33.28 26.624H485.376v57.856h120.32c17.92 0 33.28 13.312 33.28 31.232s-15.36 31.232-33.28 31.232H476.16c-42.496 0-62.464-17.92-62.464-59.904v-189.44c0-42.496 19.968-59.904 62.464-59.904h133.632c2.048 0 4.608 0 8.704-2.048 15.36 2.048 29.184 17.92 26.624 33.28v3.584zM790.528 279.552c-19.968 0-39.936-6.656-55.808-17.92-6.656 11.264-17.92 17.92-31.232 17.92h-4.608c-17.92-2.048-31.232-15.36-29.184-33.28V61.440000000000055c2.048-17.92 15.36-33.28 33.28-33.28 19.968 0 35.84 15.36 35.84 33.28v120.32c2.048 22.528 17.92 37.888 39.936 37.888 8.704 0 31.232 0 31.232-33.28v-129.024c0-15.36 15.36-29.184 33.28-26.624 8.704 0 17.92 4.608 24.576 6.656 6.656 6.656 8.704 15.36 8.704 24.576v129.024c0.512 54.784-32.768 88.576-86.016 88.576zM512 15.360000000000014c-203.264 0-368.64 165.376-368.64 368.64 0 29.696 3.584 59.392 10.752 88.064 5.632 22.016-8.192 44.032-30.208 49.664a41.472 41.472 0 0 1-49.664-30.208c-8.704-34.816-12.8-71.168-12.8-107.52 0-248.32 202.24-450.56 450.56-450.56 22.528 0 40.96 18.432 40.96 40.96s-18.432 40.96-40.96 40.96zM512 834.56c-22.528 0-40.96-18.432-40.96-40.96s18.432-40.96 40.96-40.96c203.264 0 368.64-165.376 368.64-368.64 0-28.16-3.072-56.32-9.728-83.456-5.12-22.016 8.704-44.032 30.72-49.152 3.072-0.512 6.144-1.024 9.216-1.024 18.432 0 35.328 12.8 39.936 31.744 7.68 33.28 11.776 67.584 11.776 102.4 0 247.808-202.24 450.048-450.56 450.048z"  horiz-adv-x="1024" />
      
      <glyph glyph-name="tuozhuaimoxing" unicode="&#59593;" d="M875.52 321.024h-68.096V549.376c0 67.584-55.296 122.88-122.88 122.88h-51.2V747.52c0 45.056-36.864 81.92-81.92 81.92H148.48c-45.056 0-81.92-36.864-81.92-81.92v-218.624c0-45.056 36.864-81.92 81.92-81.92h402.944c45.056 0 81.92 36.864 81.92 81.92v61.44h51.2c22.528 0 40.96-18.432 40.96-40.96v-228.352h-68.096c-45.056 0-81.92-36.864-81.92-81.92v-68.096H449.024v68.096c0 45.056-36.864 81.92-81.92 81.92H148.48c-45.056 0-81.92-36.864-81.92-81.92V20.480000000000018c0-45.056 36.864-81.92 81.92-81.92h218.624c45.056 0 81.92 36.864 81.92 81.92v68.096h126.464V20.480000000000018c0-45.056 36.864-81.92 81.92-81.92H875.52c45.056 0 81.92 36.864 81.92 81.92v218.624c0 45.056-36.864 81.92-81.92 81.92z m-324.096 207.872H148.48V747.52h402.944v-218.624z m-184.32-508.416H148.48v218.624h218.624V20.480000000000018z m508.416 0h-218.624v218.624H875.52V20.480000000000018z"  horiz-adv-x="1024" />
      
      <glyph glyph-name="yewumoxing" unicode="&#59589;" d="M817.152 254.976V513.024c0 29.184-15.36 56.32-40.96 71.168L552.96 712.704c-12.8 7.168-26.624 10.752-40.96 10.752s-28.16-3.584-40.96-10.752L247.808 583.6800000000001c-25.6-14.848-40.96-41.472-40.96-71.168v-257.536c0-29.184 15.36-56.32 40.96-71.168L471.04 55.29600000000005c12.8-7.168 26.624-10.752 40.96-10.752s28.16 3.584 40.96 10.752l223.232 129.024c25.088 14.336 40.96 41.472 40.96 70.656z m-81.92 0L512 126.46400000000006l-223.232 129.024V513.024L512 641.5360000000001l223.232-129.024v-257.536zM432.128 488.448c-15.872 15.872-41.984 15.872-57.856 0s-15.872-41.984 0-57.856L471.04 334.336v-94.72c0-22.528 18.432-40.96 40.96-40.96s40.96 18.432 40.96 40.96v94.72l96.768 96.768c15.872 15.872 15.872 41.984 0 57.856s-41.984 15.872-57.856 0L512 409.088 432.128 488.448zM240.64 20.480000000000018H189.44c-22.528 0-40.96 18.432-40.96 40.96v51.2c0 22.528-18.432 40.96-40.96 40.96s-40.96-18.432-40.96-40.96v-51.2c0-68.096 54.784-122.88 122.88-122.88h51.2c22.528 0 40.96 18.432 40.96 40.96s-18.432 40.96-40.96 40.96zM916.48 153.60000000000002c-22.528 0-40.96-18.432-40.96-40.96v-51.2c0-22.528-18.432-40.96-40.96-40.96h-51.2c-22.528 0-40.96-18.432-40.96-40.96s18.432-40.96 40.96-40.96h51.2c68.096 0 122.88 54.784 122.88 122.88v51.2c0 22.528-18.432 40.96-40.96 40.96zM107.52 614.4c22.528 0 40.96 18.432 40.96 40.96V706.56c0 22.528 18.432 40.96 40.96 40.96h51.2c22.528 0 40.96 18.432 40.96 40.96s-18.432 40.96-40.96 40.96H189.44c-68.096 0-122.88-54.784-122.88-122.88v-51.2c0-22.528 18.432-40.96 40.96-40.96zM834.56 829.44h-51.2c-22.528 0-40.96-18.432-40.96-40.96s18.432-40.96 40.96-40.96h51.2c22.528 0 40.96-18.432 40.96-40.96v-51.2c0-22.528 18.432-40.96 40.96-40.96s40.96 18.432 40.96 40.96V706.56c0 68.096-54.784 122.88-122.88 122.88z"  horiz-adv-x="1024" />
      
      <glyph glyph-name="icon-yewushiti" unicode="&#59592;" d="M642.56 452.096c-41.984-4.096-74.24-39.424-74.24-81.408v-54.784l0.512-7.68c4.096-41.984 39.424-74.24 81.408-74.24h170.496l7.68 0.512c41.984 4.096 74.24 39.424 74.24 81.408v54.784l-0.512 7.68c-4.096 41.984-39.424 74.24-81.408 74.24H650.24l-7.68-0.512z m178.176-136.192H650.24v54.784h170.496v-54.784zM431.616 534.0160000000001H254.464l-5.632-0.512c-20.48-2.56-35.328-19.968-35.328-40.448 0-22.528 18.432-40.96 40.96-40.96h177.664l5.632 0.512c20.48 2.56 35.328 19.968 35.328 40.448-0.512 22.528-18.432 40.96-41.472 40.96zM956.928 118.78399999999999c-4.096 41.984-39.424 74.24-81.408 74.24h-280.064l-7.68-0.512c-41.984-4.096-74.24-39.424-74.24-81.408V56.32000000000005l0.512-7.68c4.096-41.984 39.424-74.24 81.408-74.24H875.52l7.68 0.512c41.984 4.096 74.24 39.424 74.24 81.408v54.784l-0.512 7.68zM875.52 42.49599999999998h-280.064V97.27999999999997H875.52v-54.784zM431.616 370.17600000000004H253.952l-5.632-0.512c-20.48-2.56-35.328-19.968-35.328-40.448 0-22.528 18.432-40.96 40.96-40.96h177.664l5.632 0.512c20.48 2.56 35.328 19.968 35.328 40.448 0 22.528-17.92 40.96-40.96 40.96zM384 56.32000000000005H189.44c-22.528 0-40.96 18.432-40.96 40.96V670.72c0 22.528 18.432 40.96 40.96 40.96h491.52c22.528 0 40.96-18.432 40.96-40.96v-107.008c0-22.528 18.432-40.96 40.96-40.96s40.96 18.432 40.96 40.96V670.72c0 68.096-54.784 122.88-122.88 122.88H189.44c-68.096 0-122.88-54.784-122.88-122.88v-573.44c0-68.096 54.784-122.88 122.88-122.88h194.56c22.528 0 40.96 18.432 40.96 40.96s-18.432 40.96-40.96 40.96z"  horiz-adv-x="1024" />
      
      <glyph glyph-name="Groovyjiaoben" unicode="&#59588;" d="M875.52 803.84H148.48c-45.056 0-81.92-36.864-81.92-81.92v-675.84c0-45.056 36.864-81.92 81.92-81.92h727.04c45.056 0 81.92 36.864 81.92 81.92V721.92c0 45.056-36.864 81.92-81.92 81.92z m0-81.92v-106.496H148.48V721.92h727.04zM148.48 46.08000000000004V533.504h727.04V46.08000000000004H148.48z m586.752 157.696h-204.8c-16.896 0-30.208-13.824-30.72-30.72-0.512-16.896 13.824-30.208 30.72-30.72h204.8c16.896 0 30.208 13.824 30.72 30.72 0 16.896-13.824 30.72-30.72 30.72zM411.648 397.312c-11.776 11.776-31.232 11.776-43.52 0l-101.376-101.376c-11.776-11.776-11.776-31.232 0-43.52l101.376-101.376c11.776-11.776 31.232-11.776 43.52 0 11.776 11.776 11.776 31.232 0 43.52l-79.872 79.872 79.872 79.872c11.776 11.776 11.776 31.232 0 43.008z"  horiz-adv-x="1024" />
      
      <glyph glyph-name="yewudaima" unicode="&#59590;" d="M870.4 332.79999999999995h-10.24V691.2c0 67.584-55.296 122.88-122.88 122.88H286.72c-67.584 0-122.88-55.296-122.88-122.88v-358.4h-10.24c-45.056 0-81.92-36.864-81.92-81.92v-215.04c0-45.056 36.864-81.92 81.92-81.92h716.8c45.056 0 81.92 36.864 81.92 81.92v215.04c0 45.568-36.864 81.92-81.92 81.92zM245.76 691.2c0 22.528 18.432 40.96 40.96 40.96h450.56c22.528 0 40.96-18.432 40.96-40.96v-358.4h-92.16c-16.896 0-30.72-13.824-30.72-30.72 0-28.16-23.04-51.2-51.2-51.2H419.84c-28.16 0-51.2 23.04-51.2 51.2 0 16.896-13.824 30.72-30.72 30.72H245.76V691.2z m624.64-655.36H153.6v215.04h143.36c19.968-48.128 67.584-81.92 122.88-81.92h184.32c55.296 0 102.912 33.792 122.88 81.92h143.36v-215.04zM382.976 527.36h257.536c14.336 0 27.136 8.704 32.256 21.504 5.632 13.312 2.56 28.16-7.68 38.4l-75.264 75.264c-13.824 13.824-35.84 13.824-49.664 0-13.824-13.824-13.824-35.84 0-49.664l15.36-15.36H382.976c-19.456 0-34.816-15.872-34.816-34.816-0.512-19.456 15.36-35.328 34.816-35.328z m257.536-53.76H382.976c-14.336 0-27.136-8.704-32.256-21.504s-2.56-28.16 7.68-38.4l74.752-74.752c6.656-6.656 15.872-10.24 24.576-10.24 9.216 0 17.92 3.584 24.576 10.24 13.824 13.824 13.824 35.84 0 49.664l-15.36 15.36H640c19.456 0 34.816 15.872 34.816 34.816 0 18.944-15.36 34.816-34.304 34.816z"  horiz-adv-x="1024" />
      
      <glyph glyph-name="html-code-outlined" unicode="&#59591;" d="M909.824 612.352c-1.024 1.536-2.048 2.56-3.584 3.584l-201.216 198.656c-9.728 9.216-22.528 14.848-35.84 14.848H204.8c-56.32 0-102.4-46.08-102.4-102.4v-686.08c0-56.32 46.08-102.4 102.4-102.4h614.4c56.32 0 102.4 46.08 102.4 102.4V579.5840000000001c0 12.288-4.096 23.552-11.776 32.768z m-105.984-10.24h-112.128c-11.264 0-20.48 9.216-20.48 20.48V732.672L803.84 602.1120000000001z m35.84-561.152c0-11.264-9.216-20.48-20.48-20.48H204.8c-11.264 0-20.48 9.216-20.48 20.48V727.04c0 11.264 9.216 20.48 20.48 20.48h384.512v-124.928c0-56.32 46.08-102.4 102.4-102.4H839.68V40.960000000000036zM441.344 404.992c-15.872 15.872-41.984 15.872-57.856 0l-108.544-108.544c-15.872-15.872-15.872-41.984 0-57.856l108.544-108.544c15.872-15.872 41.984-15.872 57.856 0 15.872 15.872 15.872 41.984 0 57.856l-79.872 79.872 79.872 79.872c16.384 15.36 16.384 41.472 0 57.344zM582.656 404.992c-15.872-15.872-15.872-41.984 0-57.856l79.872-79.872-79.872-79.872c-15.872-15.872-15.872-41.984 0-57.856 15.872-15.872 41.984-15.872 57.856 0l108.544 108.544c15.872 15.872 15.872 41.984 0 57.856L640.512 404.48c-15.872 16.384-41.984 16.384-57.856 0.512z"  horiz-adv-x="1024" />
      
      <glyph glyph-name="liushuihao" unicode="&#59587;" d="M277.504 540.1600000000001c-22.528 0-40.96-18.432-40.96-40.96v-230.912c0-22.528 18.432-40.96 40.96-40.96s40.96 18.432 40.96 40.96V499.2c0 23.04-17.92 40.96-40.96 40.96zM512 540.1600000000001c-22.528 0-40.96-18.432-40.96-40.96v-230.912c0-22.528 18.432-40.96 40.96-40.96s40.96 18.432 40.96 40.96V499.2c0 23.04-18.432 40.96-40.96 40.96zM746.496 540.1600000000001c-22.528 0-40.96-18.432-40.96-40.96v-230.912c0-22.528 18.432-40.96 40.96-40.96s40.96 18.432 40.96 40.96V499.2c0 23.04-17.92 40.96-40.96 40.96zM870.4 742.4H153.6c-56.32 0-102.4-46.08-102.4-102.4v-512c0-56.32 46.08-102.4 102.4-102.4h716.8c56.32 0 102.4 46.08 102.4 102.4V640c0 56.832-46.08 102.4-102.4 102.4z m20.48-411.648V128c0-11.264-9.216-20.48-20.48-20.48H153.6c-11.264 0-20.48 9.216-20.48 20.48V640c0 11.264 9.216 20.48 20.48 20.48h716.8c11.264 0 20.48-9.216 20.48-20.48v-309.248z"  horiz-adv-x="1024" />
      
      <glyph glyph-name="xiaoyanguize" unicode="&#60132;" d="M473.6 115.20000000000005c0 14.336-11.264 25.6-25.6 25.6-166.4 0-307.2 140.8-307.2 307.2s140.8 307.2 307.2 307.2 307.2-140.8 307.2-307.2c0-19.456-3.584-38.912-8.192-57.856-2.048-9.728 5.12-18.944 14.848-18.944h47.104c6.144 0 11.776 3.584 14.336 9.728 8.704 22.528 8.704 44.544 8.704 67.072 0 210.944-173.056 384-384 384-212.992 0-387.072-175.616-384-389.12 3.072-210.944 178.176-378.88 389.12-378.88 11.264 0 20.48 9.216 20.48 20.48v30.72zM685.056 134.144c0-28.16 23.04-51.2 51.2-51.2s51.2 23.04 51.2 51.2-23.04 51.2-51.2 51.2-51.2-22.528-51.2-51.2zM953.344 147.45600000000002l-96.256 166.4c-6.656 12.8-19.456 12.8-25.6 12.8H640c-12.288 0-18.432-5.632-24.576-11.776-0.512-0.512-1.024-1.536-1.536-2.048l-95.232-165.376c-6.656-12.8-6.656-19.456 0-31.744L614.4-51.200000000000045c6.144-12.8 19.456-12.8 25.6-12.8h192c12.288 0 18.432 5.632 24.576 11.776 0.512 0.512 1.024 1.536 1.536 2.048l95.232 165.376c6.656 12.8 6.656 25.6 0 32.256z m-152.576-134.656h-129.536c-3.584 0-6.656 2.048-8.192 4.608l-65.024 112.128c-1.536 3.072-1.536 6.656 0 9.728l65.024 112.128c1.536 3.072 5.12 4.608 8.192 4.608h129.536c3.584 0 6.656-2.048 8.192-4.608l65.024-112.128c1.536-3.072 1.536-6.656 0-9.728L808.96 17.408000000000015c-1.536-2.56-4.608-4.608-8.192-4.608z m-390.144 313.344c-0.512 0.512-1.024 0.512-1.536 1.024l-112.64 156.672c-1.024 1.536-2.048 3.584-2.048 5.632v9.728c0 6.144 6.144 6.144 6.144 6.144H358.4c6.144 0 8.192 0.512 12.8-6.144L414.72 439.808c4.096-5.12 11.776-5.12 15.872 0l94.72 130.048c6.144 6.144 6.144 6.144 12.8 6.144h48.128c8.704 0 15.872-7.168 15.872-15.872 0-2.048-0.512-4.096-2.048-5.632l-163.84-226.816s-0.512 0-0.512-0.512c-8.192-5.12-17.408-5.12-25.088-1.024z"  horiz-adv-x="1024" />
      
      <glyph glyph-name="shujuzidian" unicode="&#59586;" d="M245.76 189.44000000000005h153.6c6.144 0 12.8-1.536 18.432-4.096l75.776-37.376c5.632-3.072 11.776-4.096 18.432-4.096 6.656 0 13.312 1.536 18.944 4.608l69.632 36.864c6.144 3.072 12.288 4.608 18.944 4.608h158.72c22.528 0 40.96 18.432 40.96 40.96V762.88c0 22.528-18.432 40.96-40.96 40.96h-162.816c-4.096 0-8.192-0.512-12.288-2.048l-78.848-25.088c-4.096-1.024-8.192-2.048-12.288-2.048-4.096 0-7.68 0.512-11.776 1.536l-85.504 25.6c-3.584 1.024-7.68 1.536-11.776 1.536H245.76c-22.528 0-40.96-18.432-40.96-40.96v-532.48c0-22.016 18.432-40.448 40.96-40.448z m40.96 532.48h110.08l79.872-23.552c11.264-3.584 23.04-5.12 34.816-5.12 12.8 0 25.088 2.048 36.864 5.632l73.216 23.04H737.28v-450.56h-118.272c-19.968 0-39.936-5.12-57.344-14.336l-51.2-27.136-56.832 28.16c-16.896 8.192-35.84 12.8-54.784 12.8H286.72V721.92zM916.48 458.752c-22.528 0-40.96-18.432-40.96-40.96v-308.224h-241.664c-21.504 0-41.984-6.656-59.392-18.944L512 46.08000000000004l-62.464 44.544c-17.408 12.288-37.888 18.944-59.392 18.944H148.48V417.792c0 22.528-18.432 40.96-40.96 40.96s-40.96-18.432-40.96-40.96v-308.224c0-45.056 36.864-81.92 81.92-81.92h241.664c4.096 0 8.192-1.536 11.776-3.584l62.464-44.544c14.336-10.24 30.72-15.36 47.616-15.36s33.28 5.12 47.616 15.36l62.464 44.544c3.584 2.56 7.68 3.584 11.776 3.584H875.52c45.056 0 81.92 36.864 81.92 81.92V417.792c0 22.528-18.432 40.96-40.96 40.96zM380.416 521.7280000000001h61.44c19.968 0 35.84 15.872 35.84 35.84s-15.872 35.84-35.84 35.84h-61.44c-19.968 0-35.84-15.872-35.84-35.84 0-19.456 15.872-35.84 35.84-35.84zM582.144 521.7280000000001h61.44c19.968 0 35.84 15.872 35.84 35.84s-15.872 35.84-35.84 35.84h-61.44c-19.968 0-35.84-15.872-35.84-35.84 0-19.456 15.872-35.84 35.84-35.84zM477.696 407.552c0 19.968-15.872 35.84-35.84 35.84h-61.44c-19.968 0-35.84-15.872-35.84-35.84s15.872-35.84 35.84-35.84h61.44c19.968 0 35.84 15.872 35.84 35.84zM582.144 371.712h61.44c19.968 0 35.84 15.872 35.84 35.84s-15.872 35.84-35.84 35.84h-61.44c-19.968 0-35.84-15.872-35.84-35.84s15.872-35.84 35.84-35.84z"  horiz-adv-x="1024" />
      
      <glyph glyph-name="hanshuguanli" unicode="&#59581;" d="M384 122.88c-47.104 0-88.576 31.744-100.352 77.312l-8.192 31.232c-1.536 5.632-0.512 11.264 2.048 15.872 3.072 5.12 7.68 8.192 12.8 9.728l31.232 8.192c1.536 0.512 3.584 0.512 5.12 0.512 9.728 0 17.92-6.656 20.48-15.872l8.192-30.72c3.584-12.8 14.848-22.016 28.16-22.016 13.824 0 26.112 9.216 29.696 22.528l54.784 191.488h-40.448c-11.776 0-20.992 9.728-20.992 20.992v31.744c0 11.776 9.728 20.992 20.992 20.992h61.952l24.064 83.456c13.312 45.056 54.784 76.8 101.888 76.8s88.576-31.744 100.352-77.824l8.192-30.72c3.072-11.264-4.096-23.04-15.36-25.6l-30.72-8.192c-1.536-0.512-3.584-0.512-5.12-0.512-9.728 0-17.92 6.656-20.48 15.872l-8.192 31.232c-3.584 12.8-15.36 22.016-28.672 22.016-13.824 0-26.112-9.216-30.208-22.528l-17.92-62.976h44.544c11.776 0 20.992-9.728 20.992-20.992v-31.744c0-11.776-9.728-20.992-20.992-20.992h-66.048l-60.416-211.456c-12.8-46.08-54.272-77.824-101.376-77.824zM705.024 127.48800000000006c-5.632 0-10.752 2.048-14.848 6.144l-30.208 30.208-30.208-30.208c-4.096-4.096-9.216-6.144-14.848-6.144-5.632 0-10.752 2.048-14.848 6.144l-22.528 22.528c-6.656 6.656-8.192 16.896-3.584 25.6v0.512l3.072 4.096 30.72 30.72-30.208 30.208c-6.656 6.656-8.192 16.896-3.584 25.6l0.512 0.512 2.56 3.584 23.04 23.04c4.096 4.096 9.216 6.144 14.848 6.144s10.752-2.048 14.848-6.144l30.208-30.208 30.208 30.208c4.096 4.096 9.216 6.144 14.848 6.144 5.632 0 10.752-2.048 14.848-6.144l0.512-0.512 22.016-22.016c6.656-6.656 8.192-16.896 3.584-25.6v-0.512l-3.072-4.096-30.72-30.72 30.208-30.208c6.656-6.656 8.192-16.896 3.584-25.6v-0.512l-3.072-4.096-23.04-23.04c-4.096-3.584-9.216-5.632-14.848-5.632zM849.92 721.92v-675.84H174.08V721.92h675.84m0 81.92H174.08c-45.056 0-81.92-36.864-81.92-81.92v-675.84c0-45.056 36.864-81.92 81.92-81.92h675.84c45.056 0 81.92 36.864 81.92 81.92V721.92c0 45.056-36.864 81.92-81.92 81.92z"  horiz-adv-x="1024" />
      
      <glyph glyph-name="tuozhuai" unicode="&#59585;" d="M737.28 404.992c10.24-8.704 26.112-0.512 25.6 12.8l-2.048 137.216c0 9.728-8.704 16.896-18.432 15.36l-135.68-22.016c-13.312-2.56-17.92-19.456-7.68-27.648l44.544-37.376-68.096-80.896c-5.632-6.656-4.608-16.896 2.048-22.528l24.064-20.48c6.656-5.632 16.896-4.608 22.528 2.048l68.096 80.896 45.056-37.376zM506.88 353.28H148.48c-45.056 0-81.92-36.864-81.92-81.92v-225.28c0-45.056 36.864-81.92 81.92-81.92h358.4c45.056 0 81.92 36.864 81.92 81.92v225.28c0 45.056-36.864 81.92-81.92 81.92z m0-307.2H148.48v225.28h358.4v-225.28zM875.52 803.84H424.96c-45.056 0-81.92-36.864-81.92-81.92v-266.24c0-11.264 9.216-20.48 20.48-20.48h40.96c11.264 0 20.48 9.216 20.48 20.48V721.92h450.56v-450.56h-184.32c-11.264 0-20.48-9.216-20.48-20.48v-40.96c0-11.264 9.216-20.48 20.48-20.48h184.32c45.056 0 81.92 36.864 81.92 81.92V721.92c0 45.056-36.864 81.92-81.92 81.92z"  horiz-adv-x="1024" />
      
      <glyph glyph-name="zidingyibiaodan" unicode="&#59583;" d="M875.52 332.79999999999995H148.48c-45.056 0-81.92-36.864-81.92-81.92v-204.8c0-45.056 36.864-81.92 81.92-81.92h727.04c45.056 0 81.92 36.864 81.92 81.92v204.8c0 45.056-36.864 81.92-81.92 81.92z m0-286.72H148.48v204.8h727.04v-204.8zM810.496 614.4l-167.424 58.368c-11.776 4.096-24.576-3.072-26.624-15.36l-33.28-174.08c-3.072-17.408 15.36-30.208 30.208-21.504l65.024 37.376 68.096-118.272c5.632-9.728 18.432-13.312 28.16-7.68l35.328 20.48c9.728 5.632 13.312 18.432 7.68 28.16l-68.096 118.272 65.024 37.376c14.848 8.704 12.288 31.232-4.096 36.864zM875.52 803.84H148.48c-45.056 0-81.92-36.864-81.92-81.92v-204.8c0-45.056 36.864-81.92 81.92-81.92h324.608c11.264 0 20.48 9.216 20.48 20.48v40.96c0 11.264-9.216 20.48-20.48 20.48H148.48V721.92h727.04v-52.736c0-11.264 9.216-20.48 20.48-20.48h40.96c11.264 0 20.48 9.216 20.48 20.48V721.92c0 45.056-36.864 81.92-81.92 81.92z"  horiz-adv-x="1024" />
      
      <glyph glyph-name="moxingjiandan" unicode="&#59584;" d="M910.336 259.072l-184.32 92.16c-5.632 3.072-12.8 3.072-18.432 0l-184.32-92.16c-7.168-3.584-11.264-10.752-11.264-18.432v-204.8c0-7.68 4.608-14.848 11.264-18.432l184.32-92.16c5.632-3.072 12.8-3.072 18.432 0l184.32 92.16c7.168 3.584 11.264 10.752 11.264 18.432v204.8c0 7.68-4.608 14.848-11.264 18.432z m-235.008-226.304l-81.92 40.96v113.152l81.92-40.96v-113.152z m41.472 184.32l-47.104 23.552 47.104 23.552 47.104-23.552-47.104-23.552z m122.88-143.36l-81.92-40.96v113.152l81.92 40.96v-113.152zM598.016 535.552c0 22.528-18.432 40.96-40.96 40.96H313.856c-22.528 0-40.96-18.432-40.96-40.96s18.432-40.96 40.96-40.96h242.688c23.04 0 41.472 18.432 41.472 40.96zM313.856 389.632c-22.528 0-40.96-18.432-40.96-40.96s18.432-40.96 40.96-40.96h89.088c22.528 0 40.96 18.432 40.96 40.96s-18.432 40.96-40.96 40.96H313.856zM915.456 619.008c-2.56 4.608-5.632 8.704-9.216 12.288l-201.216 198.656c-9.728 9.216-22.528 14.848-35.84 14.848H204.8c-56.32 0-102.4-46.08-102.4-102.4v-716.8c0-56.32 46.08-102.4 102.4-102.4h218.624c22.528 0 40.96 18.432 40.96 40.96s-18.432 40.96-40.96 40.96H204.8c-11.264 0-20.48 9.216-20.48 20.48V742.4c0 11.264 9.216 20.48 20.48 20.48h384.512v-124.928c0-56.32 46.08-102.4 102.4-102.4H839.68v-128.512c0-22.528 18.432-40.96 40.96-40.96s40.96 18.432 40.96 40.96V594.944c0 8.704-2.048 16.896-6.144 24.064z m-223.744-1.536c-11.264 0-20.48 9.216-20.48 20.48V748.032L803.84 617.472h-112.128z"  horiz-adv-x="1024" />
      
      <glyph glyph-name="Vue3_copy" unicode="&#59617;" d="M929.792 594.432c-2.56 8.192-6.656 15.36-12.8 21.504l-201.216 198.656c-9.728 9.216-22.528 14.848-35.84 14.848H317.44c-56.32 0-102.4-46.08-102.4-102.4v-71.68h-40.96c-45.056 0-81.92-36.864-81.92-81.92v-552.96c0-45.056 36.864-81.92 81.92-81.92h552.96c45.056 0 81.92 36.864 81.92 81.92v40.96h20.48c56.32 0 102.4 46.08 102.4 102.4V579.072c0 5.12-1.024 10.24-2.048 15.36zM681.472 732.16l34.304-33.792L814.08 601.6h-112.128c-11.264 0-20.48 9.216-20.48 20.48V732.16z m45.568-711.68H174.08V573.44h40.96v-409.6c0-56.32 46.08-102.4 102.4-102.4h409.6v-40.96z m122.88 142.848c0-11.264-9.216-20.48-20.48-20.48H317.44c-11.264 0-20.48 9.216-20.48 20.48v563.2c0 11.264 9.216 20.48 20.48 20.48h282.112v-124.928c0-56.32 46.08-102.4 102.4-102.4H849.92v-356.352zM359.936 296.96000000000004c0-22.528 18.432-40.96 40.96-40.96h345.088c22.528 0 40.96 18.432 40.96 40.96 0.512 22.528-17.92 40.96-40.448 40.96H400.896c-22.528 0-40.96-18.432-40.96-40.96zM400.896 442.88h140.288c22.528 0 40.96 18.432 40.96 40.96s-18.432 40.96-40.96 40.96H400.896c-22.528 0-40.96-18.432-40.96-40.96s18.432-40.96 40.96-40.96z"  horiz-adv-x="1024" />
      
      <glyph glyph-name="Vue3_date" unicode="&#59618;" d="M870.4 721.408h-144.384v51.2c0 22.528-18.432 40.96-40.96 40.96s-40.96-18.432-40.96-40.96v-51.2H379.904v51.2c0 22.528-18.432 40.96-40.96 40.96s-40.96-18.432-40.96-40.96v-51.2H153.6c-56.32 0-102.4-46.08-102.4-102.4v-563.2c0-56.32 46.08-102.4 102.4-102.4h716.8c56.32 0 102.4 46.08 102.4 102.4v563.2c0 56.832-46.08 102.4-102.4 102.4z m-716.8-81.92h144.384v-20.48c0-22.528 18.432-40.96 40.96-40.96s40.96 18.432 40.96 40.96v20.48h264.192v-20.48c0-22.528 18.432-40.96 40.96-40.96s40.96 18.432 40.96 40.96v20.48H870.4c11.264 0 20.48-9.216 20.48-20.48V501.76H133.12V619.008c0 11.264 9.216 20.48 20.48 20.48z m716.8-604.16H153.6c-11.264 0-20.48 9.216-20.48 20.48V420.352h757.76V56.32000000000005c0-11.776-9.216-20.992-20.48-20.992zM338.432 344.06399999999996h-51.2c-22.528 0-40.96-18.432-40.96-40.96s18.432-40.96 40.96-40.96h51.2c22.528 0 40.96 18.432 40.96 40.96s-17.92 40.96-40.96 40.96zM537.6 344.06399999999996H486.4c-22.528 0-40.96-18.432-40.96-40.96s18.432-40.96 40.96-40.96h51.2c22.528 0 40.96 18.432 40.96 40.96s-18.432 40.96-40.96 40.96zM736.768 344.06399999999996h-51.2c-22.528 0-40.96-18.432-40.96-40.96s18.432-40.96 40.96-40.96h51.2c22.528 0 40.96 18.432 40.96 40.96s-18.432 40.96-40.96 40.96zM338.432 200.192h-51.2c-22.528 0-40.96-18.432-40.96-40.96s18.432-40.96 40.96-40.96h51.2c22.528 0 40.96 18.432 40.96 40.96s-17.92 40.96-40.96 40.96zM537.6 200.192H486.4c-22.528 0-40.96-18.432-40.96-40.96s18.432-40.96 40.96-40.96h51.2c22.528 0 40.96 18.432 40.96 40.96s-18.432 40.96-40.96 40.96zM736.768 200.192h-51.2c-22.528 0-40.96-18.432-40.96-40.96s18.432-40.96 40.96-40.96h51.2c22.528 0 40.96 18.432 40.96 40.96s-18.432 40.96-40.96 40.96z"  horiz-adv-x="1024" />
      
      <glyph glyph-name="Vue3_manage" unicode="&#59621;" d="M357.888 332.288h-174.08c-56.32 0-102.4-46.08-102.4-102.4v-174.08c0-56.32 46.08-102.4 102.4-102.4h174.08c56.32 0 102.4 46.08 102.4 102.4v174.08c0 56.832-45.568 102.4-102.4 102.4z m20.48-276.48c0-11.264-9.216-20.48-20.48-20.48h-174.08c-11.264 0-20.48 9.216-20.48 20.48v174.08c0 11.264 9.216 20.48 20.48 20.48h174.08c11.264 0 20.48-9.216 20.48-20.48v-174.08zM818.688 332.288h-174.08c-56.32 0-102.4-46.08-102.4-102.4v-174.08c0-56.32 46.08-102.4 102.4-102.4h174.08c56.32 0 102.4 46.08 102.4 102.4v174.08c0 56.832-45.568 102.4-102.4 102.4z m20.48-276.48c0-11.264-9.216-20.48-20.48-20.48h-174.08c-11.264 0-20.48 9.216-20.48 20.48v174.08c0 11.264 9.216 20.48 20.48 20.48h174.08c11.264 0 20.48-9.216 20.48-20.48v-174.08zM927.232 640L768 799.232c-10.24 10.24-23.04 14.848-36.352 14.848s-26.112-5.12-36.352-14.848l-158.72-159.232c-19.968-19.968-19.968-52.224 0-72.192l159.232-159.232c10.24-10.24 23.04-14.848 36.352-14.848s26.112 5.12 36.352 14.848l159.232 159.232c19.456 19.968 19.456 52.224-0.512 72.192z m-195.584-152.064l-115.712 115.712 115.712 115.712 115.712-115.712-115.712-115.712zM357.888 793.088h-174.08c-56.32 0-102.4-46.08-102.4-102.4v-174.08c0-56.32 46.08-102.4 102.4-102.4h174.08c56.32 0 102.4 46.08 102.4 102.4v174.08c0 56.832-45.568 102.4-102.4 102.4z m20.48-276.48c0-11.264-9.216-20.48-20.48-20.48h-174.08c-11.264 0-20.48 9.216-20.48 20.48v174.08c0 11.264 9.216 20.48 20.48 20.48h174.08c11.264 0 20.48-9.216 20.48-20.48v-174.08z"  horiz-adv-x="1024" />
      
      <glyph glyph-name="Vue3_correlation" unicode="&#59622;" d="M582.656 512.512l-199.68-199.68c-15.872-15.872-15.872-41.984 0-57.856 8.192-8.192 18.432-11.776 29.184-11.776s20.992 4.096 29.184 11.776l199.68 199.68c15.872 15.872 15.872 41.984 0 57.856-16.384 16.384-41.984 16.384-58.368 0zM537.6 214.01599999999996l-159.232-159.232c-11.776-11.776-27.136-17.92-43.52-17.92s-31.744 6.144-43.52 17.92l-108.544 108.544c-11.776 11.776-17.92 27.136-17.92 43.52s6.144 31.744 17.92 43.52L342.016 409.6c15.872 15.872 15.872 41.984 0 57.856-15.872 15.872-41.984 15.872-57.856 0l-159.232-159.232c-27.136-27.136-41.984-62.976-41.984-101.376s14.848-74.24 41.984-101.376l108.544-108.544c27.136-27.136 62.976-41.984 101.376-41.984s74.24 14.848 101.376 41.984l159.232 159.232c15.872 15.872 15.872 41.984 0 57.856-15.872 15.872-41.984 15.872-57.856 0zM899.072 662.528l-108.544 108.544c-27.136 27.136-62.976 41.984-101.376 41.984s-74.24-14.848-101.376-41.984L428.544 611.8399999999999c-15.872-15.872-15.872-41.984 0-57.856 15.872-15.872 41.984-15.872 57.856 0l159.232 159.232c11.776 11.776 27.136 17.92 43.52 17.92s31.744-6.144 43.52-17.92l108.544-108.544c11.776-11.776 17.92-27.136 17.92-43.52s-6.144-31.744-17.92-43.52L681.984 358.4c-15.872-15.872-15.872-41.984 0-57.856 8.192-8.192 18.432-11.776 29.184-11.776s20.992 4.096 29.184 11.776l159.232 159.232c27.136 27.136 41.984 62.976 41.984 101.376-0.512 38.4-15.36 74.24-42.496 101.376z"  horiz-adv-x="1024" />
      
      <glyph glyph-name="Vue3_detail" unicode="&#59623;" d="M860.16 819.2H163.84c-56.32 0-102.4-46.08-102.4-102.4v-665.6c0-56.32 46.08-102.4 102.4-102.4h696.32c56.32 0 102.4 46.08 102.4 102.4V716.8c0 56.32-46.08 102.4-102.4 102.4z m20.48-768c0-11.264-9.216-20.48-20.48-20.48H163.84c-11.264 0-20.48 9.216-20.48 20.48V716.8c0 11.264 9.216 20.48 20.48 20.48h696.32c11.264 0 20.48-9.216 20.48-20.48v-665.6zM713.728 611.8399999999999H470.528c-22.528 0-40.96-18.432-40.96-40.96s18.432-40.96 40.96-40.96h242.688c22.528 0 40.96 18.432 40.96 40.96s-17.92 40.96-40.448 40.96zM348.16 586.24c-1.024 2.56-2.048 4.608-3.584 7.168-1.536 2.048-3.072 4.096-5.12 6.144-2.048 2.048-4.096 3.584-6.144 5.12-2.048 1.536-4.608 2.56-7.168 3.584-2.56 1.024-5.12 2.048-7.68 2.56-5.12 1.024-10.752 1.024-15.872 0-2.56-0.512-5.12-1.536-7.68-2.56s-4.608-2.048-7.168-3.584c-2.048-1.536-4.096-3.072-6.144-5.12-2.048-2.048-3.584-4.096-5.12-6.144-1.536-2.048-2.56-4.608-3.584-7.168-1.024-2.56-2.048-5.12-2.56-7.68-0.512-2.56-1.024-5.12-1.024-8.192 0-2.56 0.512-5.12 1.024-8.192 0.512-2.56 1.536-5.12 2.56-7.68s2.048-4.608 3.584-7.168c1.536-2.048 3.072-4.096 5.12-6.144 2.048-2.048 4.096-3.584 6.144-5.12 2.048-1.536 4.608-2.56 7.168-3.584 2.56-1.024 5.12-2.048 7.68-2.56 2.56-0.512 5.12-1.024 8.192-1.024 2.56 0 5.12 0.512 8.192 1.024 2.56 0.512 5.12 1.536 7.68 2.56s4.608 2.048 7.168 3.584c2.048 1.536 4.096 3.072 6.144 5.12 2.048 2.048 3.584 4.096 5.12 6.144 1.536 2.048 2.56 4.608 3.584 7.168 1.024 2.56 2.048 5.12 2.56 7.68 0.512 2.56 1.024 5.12 1.024 8.192 0 2.56-0.512 5.12-1.024 8.192-1.024 3.072-2.048 5.632-3.072 7.68zM348.16 399.872c-1.024 2.56-2.048 4.608-3.584 7.168-1.536 2.048-3.072 4.096-5.12 6.144-2.048 2.048-4.096 3.584-6.144 5.12-2.048 1.536-4.608 2.56-7.168 3.584-2.56 1.024-5.12 2.048-7.68 2.56-5.12 1.024-10.752 1.024-15.872 0-2.56-0.512-5.12-1.536-7.68-2.56s-4.608-2.048-7.168-3.584c-2.048-1.536-4.096-3.072-6.144-5.12-2.048-2.048-3.584-4.096-5.12-6.144-1.536-2.048-2.56-4.608-3.584-7.168-1.024-2.56-2.048-5.12-2.56-7.68-0.512-2.56-1.024-5.12-1.024-8.192 0-2.56 0.512-5.12 1.024-8.192 0.512-2.56 1.536-5.12 2.56-7.68s2.048-4.608 3.584-7.168c1.536-2.048 3.072-4.096 5.12-6.144 2.048-2.048 4.096-3.584 6.144-5.12 2.048-1.536 4.608-2.56 7.168-3.584s5.12-2.048 7.68-2.56c2.56-0.512 5.12-1.024 8.192-1.024 2.56 0 5.12 0.512 8.192 1.024 2.56 0.512 5.12 1.536 7.68 2.56s4.608 2.048 7.168 3.584c2.048 1.536 4.096 3.072 6.144 5.12 2.048 2.048 3.584 4.096 5.12 6.144 1.536 2.048 2.56 4.608 3.584 7.168 1.024 2.56 2.048 5.12 2.56 7.68 0.512 2.56 1.024 5.12 1.024 8.192 0 2.56-0.512 5.12-1.024 8.192l-3.072 7.68zM348.16 212.99199999999996c-1.024 2.56-2.048 4.608-3.584 7.168-1.536 2.048-3.072 4.096-5.12 6.144-2.048 2.048-4.096 3.584-6.144 5.12-2.048 1.536-4.608 2.56-7.168 3.584-2.56 1.024-5.12 2.048-7.68 2.56-5.12 1.024-10.752 1.024-15.872 0-2.56-0.512-5.12-1.536-7.68-2.56s-4.608-2.048-7.168-3.584c-2.048-1.536-4.096-3.072-6.144-5.12-2.048-2.048-3.584-4.096-5.12-6.144-1.536-2.048-2.56-4.608-3.584-7.168-1.024-2.56-2.048-5.12-2.56-7.68-0.512-2.56-1.024-5.12-1.024-8.192 0-2.56 0.512-5.12 1.024-8.192 0.512-2.56 1.536-5.12 2.56-7.68s2.048-4.608 3.584-7.168c1.536-2.048 3.072-4.096 5.12-6.144 2.048-2.048 4.096-3.584 6.144-5.12 2.048-1.536 4.608-2.56 7.168-3.584 2.56-1.024 5.12-2.048 7.68-2.56 2.56-0.512 5.12-1.024 8.192-1.024 2.56 0 5.12 0.512 8.192 1.024 2.56 0.512 5.12 1.536 7.68 2.56s4.608 2.048 7.168 3.584c2.048 1.536 4.096 3.072 6.144 5.12 2.048 2.048 3.584 4.096 5.12 6.144 1.536 2.048 2.56 4.608 3.584 7.168 1.024 2.56 2.048 5.12 2.56 7.68 0.512 2.56 1.024 5.12 1.024 8.192 0 2.56-0.512 5.12-1.024 8.192l-3.072 7.68zM713.728 424.96H470.528c-22.528 0-40.96-18.432-40.96-40.96s18.432-40.96 40.96-40.96h242.688c22.528 0 40.96 18.432 40.96 40.96 0.512 22.528-17.92 40.96-40.448 40.96zM713.728 238.08000000000004H470.528c-22.528 0-40.96-18.432-40.96-40.96s18.432-40.96 40.96-40.96h242.688c22.528 0 40.96 18.432 40.96 40.96 0.512 22.528-17.92 40.96-40.448 40.96z"  horiz-adv-x="1024" />
      
      <glyph glyph-name="Vue3_print" unicode="&#59624;" d="M391.68 655.8720000000001H251.392c-22.528 0-40.96-18.432-40.96-40.96s18.432-40.96 40.96-40.96h140.288c22.528 0 40.96 18.432 40.96 40.96s-18.432 40.96-40.96 40.96zM870.4 819.2H153.6c-56.32 0-102.4-46.08-102.4-102.4v-409.6c0-56.32 46.08-102.4 102.4-102.4h51.2v-153.6c0-56.32 46.08-102.4 102.4-102.4h409.6c56.32 0 102.4 46.08 102.4 102.4v153.6h51.2c56.32 0 102.4 46.08 102.4 102.4V716.8c0 56.32-46.08 102.4-102.4 102.4z m-133.12-768c0-11.264-9.216-20.48-20.48-20.48H307.2c-11.264 0-20.48 9.216-20.48 20.48v327.68h450.56v-327.68z m153.6 256c0-11.264-9.216-20.48-20.48-20.48h-51.2V409.6c0 28.16-23.04 51.2-51.2 51.2H256c-28.16 0-51.2-23.04-51.2-51.2v-122.88H153.6c-11.264 0-20.48 9.216-20.48 20.48V716.8c0 11.264 9.216 20.48 20.48 20.48h716.8c11.264 0 20.48-9.216 20.48-20.48v-409.6z"  horiz-adv-x="1024" />
      
      <glyph glyph-name="Vue3_delete" unicode="&#59625;" d="M204.8 596.992h614.4c22.528 0 40.96 18.432 40.96 40.96s-18.432 40.96-40.96 40.96h-120.32V742.4c0 50.688-41.472 92.16-92.16 92.16h-189.44c-50.688 0-92.16-41.472-92.16-92.16v-63.488H204.8c-22.528 0-40.96-18.432-40.96-40.96s18.432-40.96 40.96-40.96zM407.04 742.4c0 5.632 4.608 10.24 10.24 10.24h189.44c5.632 0 10.24-4.608 10.24-10.24v-63.488h-209.92V742.4zM380.928 371.712v-230.912c0-22.528 18.432-40.96 40.96-40.96s40.96 18.432 40.96 40.96v230.912c0 22.528-18.432 40.96-40.96 40.96s-40.96-18.432-40.96-40.96zM561.152 371.712v-230.912c0-22.528 18.432-40.96 40.96-40.96s40.96 18.432 40.96 40.96v230.912c0 22.528-18.432 40.96-40.96 40.96-23.04 0-40.96-18.432-40.96-40.96zM819.2 527.36c-22.528 0-40.96-18.432-40.96-40.96v-409.6c0-33.792-27.648-61.44-61.44-61.44H307.2c-33.792 0-61.44 27.648-61.44 61.44V486.4c0 22.528-18.432 40.96-40.96 40.96s-40.96-18.432-40.96-40.96v-409.6c0-78.848 64.512-143.36 143.36-143.36h409.6c78.848 0 143.36 64.512 143.36 143.36V486.4c0 22.528-18.432 40.96-40.96 40.96z"  horiz-adv-x="1024" />
      
      <glyph glyph-name="Vue3_publish" unicode="&#59626;" d="M735.744-14.847999999999956c-7.168 0-14.848 2.048-20.992 6.144L539.648 97.27999999999997 460.8 14.847999999999956c-11.776-12.288-29.184-15.872-45.056-9.728-15.36 6.144-25.6 21.504-25.6 37.888V204.79999999999995c0 10.24 3.584 19.968 10.752 27.648L670.72 531.456c15.36 16.896 40.96 17.92 57.856 3.072 16.896-15.36 17.92-40.96 3.072-57.856L471.552 189.44000000000005v-44.544l31.232 32.256c13.312 13.824 34.304 16.896 50.688 6.656l153.088-92.672 111.104 577.024L234.496 378.88l131.584-81.408c19.456-11.776 25.088-37.376 13.312-56.32-11.776-19.456-37.376-25.088-56.32-13.312l-194.56 120.32c-12.8 7.68-19.968 22.016-19.456 36.864 0.512 14.848 9.216 28.16 22.528 34.816L855.04 778.752c13.824 7.168 30.72 5.12 43.008-4.096 12.288-9.216 18.432-25.088 15.36-40.448l-138.24-716.288c-2.56-13.312-11.264-24.064-23.552-29.696-4.608-2.048-10.24-3.072-15.872-3.072z"  horiz-adv-x="1024" />
      
      <glyph glyph-name="Vue3_file" unicode="&#59627;" d="M919.552 594.432c-2.56 8.192-6.656 15.36-12.8 21.504l-201.216 198.656c-9.728 9.216-22.528 14.848-35.84 14.848H204.8c-56.32 0-102.4-46.08-102.4-102.4v-686.08c0-56.32 46.08-102.4 102.4-102.4h614.4c56.32 0 102.4 46.08 102.4 102.4V579.072c0 5.12-1.024 10.24-2.048 15.36zM803.84 601.6h-112.128c-11.264 0-20.48 9.216-20.48 20.48V732.16l34.304-33.792L803.84 601.6z m35.84-561.152c0-11.264-9.216-20.48-20.48-20.48H204.8c-11.264 0-20.48 9.216-20.48 20.48v686.08c0 11.264 9.216 20.48 20.48 20.48h384.512v-124.928c0-56.32 46.08-102.4 102.4-102.4H839.68v-479.232zM296.96 307.712h276.48c11.264 0 20.48 9.216 20.48 20.48v61.44c0 11.264-9.216 20.48-20.48 20.48H296.96c-11.264 0-20.48-9.216-20.48-20.48v-61.44c0-11.264 9.216-20.48 20.48-20.48zM727.04 212.99199999999996H296.96c-11.264 0-20.48-9.216-20.48-20.48v-61.44c0-11.264 9.216-20.48 20.48-20.48h430.08c11.264 0 20.48 9.216 20.48 20.48v61.44c0 11.264-9.216 20.48-20.48 20.48z"  horiz-adv-x="1024" />
      
      <glyph glyph-name="Vue3_reset" unicode="&#59628;" d="M101.888 497.664c5.12-2.048 10.24-3.072 15.36-3.072 16.384 0 31.744 9.728 37.888 25.6C211.456 661.504 345.6 752.64 497.664 752.64c137.216 0 261.632-75.776 325.632-195.584h-120.832c-22.528 0-40.96-18.432-40.96-40.96s18.432-40.96 40.96-40.96h184.32c33.792 0 61.44 27.648 61.44 61.44v184.32c0 22.528-18.432 40.96-40.96 40.96s-40.96-18.432-40.96-40.96v-77.824c-83.456 118.272-220.16 191.488-368.64 191.488C312.32 834.56 147.968 723.456 79.36 550.912c-8.704-20.992 1.536-44.544 22.528-53.248zM922.112 270.336c-20.992 8.192-45.056-2.048-53.248-23.04-56.32-140.8-190.976-231.936-342.528-231.936-137.216 0-261.632 75.776-325.632 195.584h120.832c22.528 0 40.96 18.432 40.96 40.96s-18.432 40.96-40.96 40.96h-184.32c-33.792 0-61.44-27.648-61.44-61.44v-184.32c0-22.528 18.432-40.96 40.96-40.96s40.96 18.432 40.96 40.96v77.824c83.456-118.272 220.16-191.488 368.64-191.488 185.344 0 349.696 111.104 418.304 283.648 8.704 20.992-1.536 44.544-22.528 53.248z"  horiz-adv-x="1024" />
      
      <glyph glyph-name="Vue3_share" unicode="&#59629;" d="M768 296.96000000000004c-53.76 0-101.888-25.6-133.12-65.024l-212.48 122.88c1.536 9.216 2.56 18.944 2.56 29.184s-1.024 19.968-2.56 29.696c1.024 0.512 2.048 1.024 2.56 1.536l209.92 121.344C665.6 496.64 713.728 471.04 768 471.04c93.184 0 168.96 75.776 168.96 168.96s-75.776 168.96-168.96 168.96-168.96-75.776-168.96-168.96c0-9.728 1.024-19.456 2.56-28.672l-212.992-122.88C357.376 527.8720000000001 309.76 552.96 256 552.96c-93.184 0-168.96-75.776-168.96-168.96s75.776-168.96 168.96-168.96c53.76 0 101.888 25.6 132.608 64.512l212.992-122.88c-1.536-9.216-2.56-18.944-2.56-28.672 0-93.184 75.776-168.96 168.96-168.96s168.96 75.776 168.96 168.96-75.776 168.96-168.96 168.96z m0 430.08c48.128 0 87.04-38.912 87.04-87.04s-38.912-87.04-87.04-87.04-87.04 38.912-87.04 87.04 38.912 87.04 87.04 87.04zM256 296.96000000000004c-48.128 0-87.04 38.912-87.04 87.04s38.912 87.04 87.04 87.04 87.04-38.912 87.04-87.04-38.912-87.04-87.04-87.04z m512-256c-48.128 0-87.04 38.912-87.04 87.04s38.912 87.04 87.04 87.04 87.04-38.912 87.04-87.04-38.912-87.04-87.04-87.04z"  horiz-adv-x="1024" />
      
      <glyph glyph-name="Vue3_search" unicode="&#59630;" d="M914.944 32.25599999999997L783.36 163.84000000000003c57.856 68.096 92.672 156.16 92.672 251.904 0 214.528-174.592 389.632-389.632 389.632S97.28 630.784 97.28 415.744s174.592-389.632 389.632-389.632c89.088 0 171.52 30.208 237.056 80.896l133.12-133.12c8.192-8.192 18.432-11.776 29.184-11.776 10.24 0 20.992 4.096 29.184 11.776 15.36 16.896 15.36 42.496-0.512 58.368zM179.2 415.744c0 169.472 137.728 307.712 307.712 307.712s307.712-137.728 307.712-307.712-137.728-307.712-307.712-307.712S179.2 246.27200000000005 179.2 415.744z"  horiz-adv-x="1024" />
      
      <glyph glyph-name="Vue3_user-add" unicode="&#59631;" d="M249.856 203.77599999999995h267.60533333c24.02986667 0 43.69066667 19.6608 43.69066667 43.69066667s-19.6608 43.69066667-43.69066667 43.69066666H249.856c-96.11946667 0-174.76266667-78.6432-174.76266667-174.76266666v-109.22666667c0-42.05226667 34.4064-76.45866667 76.45866667-76.45866667h360.448c24.02986667 0 43.69066667 19.6608 43.69066667 43.69066667s-19.6608 43.69066667-43.69066667 43.69066667H162.47466667v98.304c0 48.05973333 39.3216 87.38133333 87.38133333 87.38133333zM905.216 154.62400000000002h-92.84266667v92.84266667c0 24.02986667-19.6608 43.69066667-43.69066666 43.69066666s-43.69066667-19.6608-43.69066667-43.69066666v-92.84266667h-92.84266667c-24.02986667 0-43.69066667-19.6608-43.69066666-43.69066667s19.6608-43.69066667 43.69066666-43.69066666h92.84266667v-92.84266667c0-24.02986667 19.6608-43.69066667 43.69066667-43.69066667s43.69066667 19.6608 43.69066666 43.69066667v92.84266667h92.84266667c24.02986667 0 43.69066667 19.6608 43.69066667 43.69066666s-19.6608 43.69066667-43.69066667 43.69066667zM484.69333333 367.616c129.4336 0 234.83733333 105.40373333 234.83733334 234.83733333s-105.40373333 234.83733333-234.83733334 234.83733334-234.83733333-105.40373333-234.83733333-234.83733334 105.40373333-234.83733333 234.83733333-234.83733333z m0 382.29333333c81.37386667 0 147.456-66.08213333 147.456-147.456s-66.08213333-147.456-147.456-147.456-147.456 66.08213333-147.456 147.456 66.08213333 147.456 147.456 147.456z"  horiz-adv-x="1024" />
      
      <glyph glyph-name="a-Vue3_usergroup" unicode="&#59632;" d="M331.776 741.888c0 0.512 0 0.512 0 0zM330.24 741.888h1.024s-5.632-0.512-1.024 0zM359.936 337.91999999999996c13.824 0.512 27.136 2.56 40.448 5.632 18.432 4.608 29.696 23.04 25.088 41.472-4.608 18.432-23.04 28.672-41.472 24.064-10.24-2.56-20.48-4.096-31.744-4.096-62.976-0.512-118.784 43.52-132.608 104.448-18.432 79.872 36.352 155.648 115.2 165.376l2.048 0.512c18.432 2.048 31.744 18.944 29.696 36.864-2.048 18.944-18.944 32.256-37.888 30.208-1.536 0-2.56-0.512-3.584-0.512-115.2-14.848-195.584-122.88-174.08-238.592C169.984 404.48 259.584 333.312 359.936 337.91999999999996zM217.088 281.08799999999997H209.92c-101.888 0-184.32-82.432-184.32-184.32v-22.528c0-45.056 36.864-81.92 81.92-81.92h89.088c22.016 0 39.424 17.408 39.424 39.424s-17.408 39.424-39.424 39.424H107.52c-1.536 0-3.072 1.536-3.072 3.072v22.528c0 58.368 47.104 105.472 105.472 105.472h7.168c22.016 0 39.424 17.408 39.424 39.424 0 21.504-17.408 39.424-39.424 39.424zM640 368.64c127.488 0 230.4 102.912 230.4 230.4s-102.912 230.4-230.4 230.4-230.4-102.912-230.4-230.4 102.912-230.4 230.4-230.4z m0 378.88c81.92 0 148.48-66.56 148.48-148.48s-66.56-148.48-148.48-148.48-148.48 66.56-148.48 148.48 66.56 148.48 148.48 148.48zM834.56 266.24H445.44c-90.624 0-163.84-73.216-163.84-163.84v-81.92c0-45.056 36.864-81.92 81.92-81.92h552.96c45.056 0 81.92 36.864 81.92 81.92v81.92c0 90.112-73.216 163.84-163.84 163.84z m81.92-245.76H363.52v81.92c0 45.056 36.864 81.92 81.92 81.92h389.12c45.056 0 81.92-36.864 81.92-81.92v-81.92z"  horiz-adv-x="1024" />
      
      <glyph glyph-name="Vue3_user" unicode="&#59634;" d="M774.144 291.15733333000003H249.856c-96.11946667 0-174.76266667-78.6432-174.76266667-174.76266666v-109.22666667c0-42.05226667 34.4064-76.45866667 76.45866667-76.45866667h720.896c42.05226667 0 76.45866667 34.4064 76.45866667 76.45866667v109.22666667c0 96.11946667-78.6432 174.76266667-174.76266667 174.76266666z m87.38133333-273.06666666H162.47466667v98.304c0 48.05973333 39.3216 87.38133333 87.38133333 87.38133333h524.288c48.05973333 0 87.38133333-39.3216 87.38133333-87.38133333v-98.304zM512 367.616c129.4336 0 234.83733333 105.40373333 234.83733333 234.83733333s-105.40373333 234.83733333-234.83733333 234.83733334-234.83733333-105.40373333-234.83733333-234.83733334 105.40373333-234.83733333 234.83733333-234.83733333z m0 382.29333333c81.37386667 0 147.456-66.08213333 147.456-147.456s-66.08213333-147.456-147.456-147.456-147.456 66.08213333-147.456 147.456 66.08213333 147.456 147.456 147.456z"  horiz-adv-x="1024" />
      
      <glyph glyph-name="Vue3_notice" unicode="&#59635;" d="M622.592 34.303999999999974H401.408c-7.168 0-12.288-7.168-9.728-13.824 17.92-49.152 65.024-84.48 120.32-84.48s102.4 35.328 120.32 84.48c2.56 6.656-2.56 13.824-9.728 13.824zM834.56 323.072V450.048c0 126.464-75.264 241.664-188.928 293.888C624.128 797.184 571.392 834.56 512 834.56s-112.128-37.376-133.632-91.136C264.704 691.712 189.44 576 189.44 450.048v-126.976c-62.464-2.56-112.64-54.272-112.64-117.76 0-65.024 52.736-117.76 117.76-117.76h634.88c65.024 0 117.76 52.736 117.76 117.76 0 63.488-50.176 115.2-112.64 117.76z m-5.12-153.6H194.56c-19.968 0-35.84 15.872-35.84 35.84s15.872 35.84 35.84 35.84h25.6c28.16 0 51.2 23.04 51.2 51.2V450.048c0 99.328 62.464 189.44 155.136 224.768l20.992 7.68 4.608 21.504C458.24 732.16 483.328 752.64 512 752.64s53.76-20.48 59.904-48.128l4.608-21.504 20.992-7.68C690.176 640 752.64 549.8879999999999 752.64 450.56v-157.184c0-28.16 23.04-51.2 51.2-51.2h25.6c19.968 0 35.84-15.872 35.84-35.84s-15.872-36.864-35.84-36.864z"  horiz-adv-x="1024" />
      
      <glyph glyph-name="Vue3_feedback" unicode="&#59639;" d="M870.4 778.24H153.6c-56.32 0-102.4-46.08-102.4-102.4v-512c0-56.32 46.08-102.4 102.4-102.4h212.992l72.704-93.184c19.968-19.968 46.08-30.208 72.192-30.208s52.224 10.24 72.192 30.208l72.704 93.184H870.4c56.32 0 102.4 46.08 102.4 102.4V675.84c0 56.832-46.08 102.4-102.4 102.4z m20.48-614.4c0-11.264-9.216-20.48-20.48-20.48h-252.928l-24.576-31.744-68.608-87.552c-4.096-3.072-8.704-4.096-12.288-4.096s-7.68 0.512-12.288 4.096l-68.608 87.552-24.576 31.744H153.6c-11.264 0-20.48 9.216-20.48 20.48V675.84c0 11.264 9.216 20.48 20.48 20.48h716.8c11.264 0 20.48-9.216 20.48-20.48v-512zM302.08 420.352m-66.56 0a66.56 66.56 0 1 1 133.12 0 66.56 66.56 0 1 1-133.12 0ZM512 420.352m-66.56 0a66.56 66.56 0 1 1 133.12 0 66.56 66.56 0 1 1-133.12 0ZM721.92 420.352m-66.56 0a66.56 66.56 0 1 1 133.12 0 66.56 66.56 0 1 1-133.12 0Z"  horiz-adv-x="1024" />
      
      <glyph glyph-name="Vue3_setting" unicode="&#59745;" d="M668.19413333 474.112c-49.69813333 86.28906667-160.01706667 115.78026667-246.30613333 66.08213333s-115.78026667-160.01706667-66.08213333-246.30613333C389.12 235.99786667 449.7408 203.77599999999995 512 203.77599999999995c30.58346667 0 61.71306667 7.64586667 90.112 24.02986667 86.28906667 49.69813333 115.78026667 160.5632 66.08213333 246.30613333z m-109.7728-170.3936c-44.2368-25.66826667-101.03466667-10.37653333-126.70293333 33.86026667-25.66826667 44.2368-10.37653333 101.03466667 33.86026667 126.70293333 14.7456 8.192 30.58346667 12.56106667 46.42133333 12.56106667 32.22186667 0 63.35146667-16.384 80.2816-46.42133334 25.66826667-44.2368 10.37653333-101.03466667-33.86026667-126.70293333zM981.67466667 447.8976c0 24.02986667-9.28426667 46.42133333-26.2144 63.35146667-16.93013333 16.93013333-39.3216 26.2144-63.35146667 26.2144h-72.0896c-3.2768 6.5536-6.5536 13.1072-10.37653333 19.11466666s-7.64586667 12.56106667-11.4688 18.56853334l36.0448 62.2592c12.01493333 20.75306667 15.29173333 44.78293333 8.73813333 67.72053333-6.00746667 22.9376-20.75306667 42.05226667-41.50613333 54.0672l-110.31893334 63.35146667c-42.5984 24.576-97.21173333 9.8304-121.78773333-32.768l-36.0448-62.80533334c-14.19946667 1.09226667-28.94506667 1.09226667-43.14453333 0l-36.0448 62.2592c-12.01493333 20.75306667-31.1296 35.49866667-54.0672 41.50613334-22.9376 6.00746667-46.96746667 2.73066667-67.72053334-8.73813334L222.0032 758.64746667c-42.5984-24.576-57.344-79.18933333-32.768-121.78773334l36.0448-62.2592c-8.192-12.01493333-15.29173333-24.576-21.84533333-37.6832H131.34506667c-49.152 0-89.01973333-39.86773333-89.01973334-89.56586666v-127.24906667c0-49.152 39.86773333-89.01973333 89.01973334-89.01973333h72.0896c3.2768-6.5536 6.5536-13.1072 10.37653333-19.11466667s7.64586667-12.56106667 11.4688-18.56853333l-36.0448-62.2592c-12.01493333-20.75306667-15.29173333-44.78293333-8.73813333-67.72053334 6.00746667-22.9376 20.75306667-42.05226667 41.50613333-54.0672l110.31893333-63.35146666c13.65333333-8.192 28.94506667-12.01493333 44.2368-12.01493334 7.64586667 0 15.83786667 1.09226667 23.48373334 3.2768 22.9376 6.00746667 42.05226667 20.75306667 54.0672 41.50613334l36.0448 62.80533333c14.19946667-1.09226667 28.94506667-1.09226667 43.14453333 0l36.0448-62.2592c24.576-42.5984 79.18933333-57.344 121.78773333-32.768l110.31893334 63.8976c42.5984 24.576 57.344 79.18933333 32.768 121.78773333l-36.0448 62.2592c8.192 12.01493333 15.29173333 24.576 21.84533333 37.6832h72.0896c24.02986667 0 46.42133333 9.28426667 63.35146667 26.2144 16.93013333 16.93013333 26.2144 39.3216 26.2144 63.35146667V447.8976z m-87.92746667-128.88746667c-0.54613333-0.54613333-1.09226667-0.54613333-1.09226667-0.54613333h-82.46613333c-27.8528 0-53.52106667-16.384-64.98986667-42.05226667-6.5536-14.19946667-14.7456-27.8528-23.48373333-40.96-16.384-22.9376-17.47626667-52.97493333-3.82293333-77.0048l40.96-71.54346666c0.54613333-1.09226667 0-2.18453333-0.54613334-2.73066667l-110.31893333-63.8976c-1.09226667-0.54613333-2.18453333 0-2.73066667 0.54613333l-40.96 71.54346667c-13.65333333 24.02986667-40.96 37.6832-68.8128 35.49866667-15.83786667-1.6384-31.67573333-1.6384-47.5136 0-27.8528 2.73066667-54.61333333-11.4688-68.8128-35.49866667l-40.96-71.54346667-1.09226666-1.09226666H375.46666667l-110.31893334 63.35146666-1.09226666 1.09226667v1.6384l40.96 70.99733333c13.65333333 24.02986667 12.56106667 54.0672-3.82293334 77.0048-4.36906667 6.5536-8.73813333 13.1072-12.56106666 19.6608-3.82293333 6.5536-7.64586667 13.65333333-10.92266667 20.75306667-11.4688 25.66826667-37.13706667 42.05226667-64.98986667 42.05226667H130.2528c-1.09226667 0-1.6384 1.09226667-1.6384 1.6384V445.16693333c0 1.09226667 1.09226667 1.6384 1.6384 1.6384h82.46613333c27.8528 0 53.52106667 16.384 64.98986667 42.05226667 6.5536 14.19946667 14.7456 27.8528 23.48373333 40.96 16.384 22.9376 17.47626667 52.97493333 3.82293334 77.0048l-40.96 71.54346667c-0.54613333 1.09226667 0 2.18453333 0.54613333 2.73066666l110.31893333 63.8976s0.54613333 0.54613333 1.6384 0c0.54613333 0 1.09226667-0.54613333 1.09226667-1.09226666l40.96-71.54346667c13.65333333-24.02986667 40.96-37.6832 68.8128-35.49866667 15.83786667 1.6384 31.67573333 1.6384 47.5136 0 27.8528-2.73066667 54.61333333 11.4688 68.8128 35.49866667l40.96 71.54346667c0.54613333 1.09226667 1.6384 1.09226667 2.73066667 0.54613333L757.76 681.09653333l1.09226667-1.09226666v-1.6384l-40.96-70.99733334c-13.65333333-24.02986667-12.56106667-54.0672 3.82293333-77.0048 4.36906667-6.5536 8.73813333-13.1072 12.56106667-19.6608 3.82293333-6.5536 7.64586667-13.65333333 10.92266666-20.75306666 11.4688-25.66826667 37.13706667-42.05226667 64.98986667-42.05226667h82.46613333s0.54613333 0 1.09226667-0.54613333 0.54613333-1.09226667 0.54613333-1.09226667v-127.24906667c0 1.09226667 0 0.54613333-0.54613333 0z"  horiz-adv-x="1024" />
      
      <glyph glyph-name="liuchengjiedian" unicode="&#59810;" d="M771.98 823.98A120 120 0 0 0 812 590.8199999999999V564c0-66.3-28.38-106.98-106.8-171.12l-25.14-19.98-25.68-19.92-21.72-17.28-18.66-15.66c-43.2-37.44-59.88-61.98-61.8-90.3l-0.18-5.76v-46.8a120 120 0 1 0-80.04 0v46.8l-0.18 5.76c-2.04 29.76-20.4 55.44-68.82 96.3l-21 17.16-51 39.9c-83.52 66.6-115.86 107.28-118.8 171.12L212 564v26.82a120 120 0 1 0 80.04 0V564c0-30.84 15.9-56.16 61.92-96l18.72-15.72 21.72-17.28 12-9.3c46.98-36.12 80.64-64.56 103.68-91.44l1.86-2.28 1.98 2.28c20.76 24.18 50.1 49.62 90 80.82l25.68 19.92 21.72 17.28 18.72 15.72c43.2 37.38 59.88 61.98 61.8 90.3L731.96 564l-0.12 26.88a120 120 0 0 0 40.08 233.1z"  horiz-adv-x="1024" />
      
      <glyph glyph-name="yinying" unicode="&#59815;" d="M875.52 655.36h-92.16V747.52c0 45.056-36.864 81.92-81.92 81.92H148.48c-45.056 0-81.92-36.864-81.92-81.92v-552.96c0-45.056 36.864-81.92 81.92-81.92h92.16v-92.16c0-45.056 36.864-81.92 81.92-81.92h552.96c45.056 0 81.92 36.864 81.92 81.92V573.44c0 45.056-36.864 81.92-81.92 81.92z m-76.8-81.92l76.8-76.8v-97.792l-92.16 92.16V573.44h15.36z m-15.36-198.144l92.16-92.16v-97.792l-92.16 92.16v97.792zM618.496 112.63999999999999l92.16-92.16h-97.792l-92.16 92.16h97.792zM148.48 747.52h552.96v-552.96H148.48V747.52z m256.512-634.88l92.16-92.16H399.36l-76.8 76.8v15.36h82.432z m421.376-92.16l-97.28 97.28c22.528 8.192 40.448 26.112 49.152 49.152l97.28-97.28v-49.152h-49.152z"  horiz-adv-x="1024" />
      
      <glyph glyph-name="yinying-outside" unicode="&#59816;" d="M875.52 829.44H148.48c-45.056 0-81.92-36.864-81.92-81.92v-727.04c0-45.056 36.864-81.92 81.92-81.92h727.04c45.056 0 81.92 36.864 81.92 81.92V747.52c0 45.056-36.864 81.92-81.92 81.92z m-45.056-808.96l-92.16 92.16h-115.712l92.16-92.16h-89.6l-92.16 92.16H416.768l92.16-92.16H419.328l-92.16 92.16H211.456l92.16-92.16H213.504L148.48 85.50400000000002V747.52h662.016L875.52 682.496v-89.6l-92.16 92.16v-115.712l92.16-92.16v-89.6l-92.16 92.16v-115.712l92.16-92.16v-89.6l-92.16 92.16V158.72000000000003l92.16-92.16v-45.056h-45.056z"  horiz-adv-x="1024" />
      
      <glyph glyph-name="radius-upleft" unicode="&#60169;" d="M542.72 829.44H373.76c-169.472 0-307.2-137.728-307.2-307.2v-168.96c0-11.264 9.216-20.48 20.48-20.48h40.96c11.264 0 20.48 9.216 20.48 20.48V522.24c0 124.416 100.864 225.28 225.28 225.28h168.96c11.264 0 20.48 9.216 20.48 20.48v40.96c0 11.264-9.216 20.48-20.48 20.48zM936.96 829.44h-40.96c-11.264 0-20.48-9.216-20.48-20.48v-40.96c0-11.264 9.216-20.48 20.48-20.48h40.96c11.264 0 20.48 9.216 20.48 20.48v40.96c0 11.264-9.216 20.48-20.48 20.48zM734.72 829.44h-40.96c-11.264 0-20.48-9.216-20.48-20.48v-40.96c0-11.264 9.216-20.48 20.48-20.48h40.96c11.264 0 20.48 9.216 20.48 20.48v40.96c0 11.264-9.216 20.48-20.48 20.48zM330.24 20.480000000000018h-40.96c-11.264 0-20.48-9.216-20.48-20.48v-40.96c0-11.264 9.216-20.48 20.48-20.48h40.96c11.264 0 20.48 9.216 20.48 20.48v40.96c0 11.264-9.216 20.48-20.48 20.48zM532.48 20.480000000000018h-40.96c-11.264 0-20.48-9.216-20.48-20.48v-40.96c0-11.264 9.216-20.48 20.48-20.48h40.96c11.264 0 20.48 9.216 20.48 20.48v40.96c0 11.264-9.216 20.48-20.48 20.48zM734.72 20.480000000000018h-40.96c-11.264 0-20.48-9.216-20.48-20.48v-40.96c0-11.264 9.216-20.48 20.48-20.48h40.96c11.264 0 20.48 9.216 20.48 20.48v40.96c0 11.264-9.216 20.48-20.48 20.48zM936.96 20.480000000000018h-40.96c-11.264 0-20.48-9.216-20.48-20.48v-40.96c0-11.264 9.216-20.48 20.48-20.48h40.96c11.264 0 20.48 9.216 20.48 20.48v40.96c0 11.264-9.216 20.48-20.48 20.48zM936.96 627.2h-40.96c-11.264 0-20.48-9.216-20.48-20.48v-40.96c0-11.264 9.216-20.48 20.48-20.48h40.96c11.264 0 20.48 9.216 20.48 20.48v40.96c0 11.264-9.216 20.48-20.48 20.48zM936.96 424.96h-40.96c-11.264 0-20.48-9.216-20.48-20.48v-40.96c0-11.264 9.216-20.48 20.48-20.48h40.96c11.264 0 20.48 9.216 20.48 20.48v40.96c0 11.264-9.216 20.48-20.48 20.48zM128 222.72000000000003h-40.96c-11.264 0-20.48-9.216-20.48-20.48v-40.96c0-11.264 9.216-20.48 20.48-20.48h40.96c11.264 0 20.48 9.216 20.48 20.48v40.96c0 11.264-9.216 20.48-20.48 20.48zM936.96 222.72000000000003h-40.96c-11.264 0-20.48-9.216-20.48-20.48v-40.96c0-11.264 9.216-20.48 20.48-20.48h40.96c11.264 0 20.48 9.216 20.48 20.48v40.96c0 11.264-9.216 20.48-20.48 20.48zM128 20.480000000000018h-40.96c-11.264 0-20.48-9.216-20.48-20.48v-40.96c0-11.264 9.216-20.48 20.48-20.48h40.96c11.264 0 20.48 9.216 20.48 20.48v40.96c0 11.264-9.216 20.48-20.48 20.48z"  horiz-adv-x="1024" />
      
      <glyph glyph-name="radius-bottomleft" unicode="&#60170;" d="M87.04 747.52h40.96c11.264 0 20.48 9.216 20.48 20.48v40.96c0 11.264-9.216 20.48-20.48 20.48h-40.96c-11.264 0-20.48-9.216-20.48-20.48v-40.96c0-11.264 9.216-20.48 20.48-20.48zM289.28 747.52h40.96c11.264 0 20.48 9.216 20.48 20.48v40.96c0 11.264-9.216 20.48-20.48 20.48h-40.96c-11.264 0-20.48-9.216-20.48-20.48v-40.96c0-11.264 9.216-20.48 20.48-20.48zM734.72 829.44h-40.96c-11.264 0-20.48-9.216-20.48-20.48v-40.96c0-11.264 9.216-20.48 20.48-20.48h40.96c11.264 0 20.48 9.216 20.48 20.48v40.96c0 11.264-9.216 20.48-20.48 20.48zM491.52 747.52h40.96c11.264 0 20.48 9.216 20.48 20.48v40.96c0 11.264-9.216 20.48-20.48 20.48h-40.96c-11.264 0-20.48-9.216-20.48-20.48v-40.96c0-11.264 9.216-20.48 20.48-20.48zM734.72 20.480000000000018h-40.96c-11.264 0-20.48-9.216-20.48-20.48v-40.96c0-11.264 9.216-20.48 20.48-20.48h40.96c11.264 0 20.48 9.216 20.48 20.48v40.96c0 11.264-9.216 20.48-20.48 20.48zM936.96 20.480000000000018h-40.96c-11.264 0-20.48-9.216-20.48-20.48v-40.96c0-11.264 9.216-20.48 20.48-20.48h40.96c11.264 0 20.48 9.216 20.48 20.48v40.96c0 11.264-9.216 20.48-20.48 20.48zM87.04 545.28h40.96c11.264 0 20.48 9.216 20.48 20.48v40.96c0 11.264-9.216 20.48-20.48 20.48h-40.96c-11.264 0-20.48-9.216-20.48-20.48v-40.96c0-11.264 9.216-20.48 20.48-20.48zM936.96 829.44h-40.96c-11.264 0-20.48-9.216-20.48-20.48v-40.96c0-11.264 9.216-20.48 20.48-20.48h40.96c11.264 0 20.48 9.216 20.48 20.48v40.96c0 11.264-9.216 20.48-20.48 20.48zM936.96 627.2h-40.96c-11.264 0-20.48-9.216-20.48-20.48v-40.96c0-11.264 9.216-20.48 20.48-20.48h40.96c11.264 0 20.48 9.216 20.48 20.48v40.96c0 11.264-9.216 20.48-20.48 20.48zM936.96 222.72000000000003h-40.96c-11.264 0-20.48-9.216-20.48-20.48v-40.96c0-11.264 9.216-20.48 20.48-20.48h40.96c11.264 0 20.48 9.216 20.48 20.48v40.96c0 11.264-9.216 20.48-20.48 20.48zM936.96 424.96h-40.96c-11.264 0-20.48-9.216-20.48-20.48v-40.96c0-11.264 9.216-20.48 20.48-20.48h40.96c11.264 0 20.48 9.216 20.48 20.48v40.96c0 11.264-9.216 20.48-20.48 20.48zM542.72 20.480000000000018H373.76c-124.416 0-225.28 100.864-225.28 225.28V414.72c0 11.264-9.216 20.48-20.48 20.48h-40.96c-11.264 0-20.48-9.216-20.48-20.48v-168.96c0-169.472 137.728-307.2 307.2-307.2h168.96c11.264 0 20.48 9.216 20.48 20.48v40.96c0 11.264-9.216 20.48-20.48 20.48z"  horiz-adv-x="1024" />
      
      <glyph glyph-name="radius-bottomright" unicode="&#60171;" d="M128 829.44h-40.96c-11.264 0-20.48-9.216-20.48-20.48v-40.96c0-11.264 9.216-20.48 20.48-20.48h40.96c11.264 0 20.48 9.216 20.48 20.48v40.96c0 11.264-9.216 20.48-20.48 20.48zM330.24 829.44h-40.96c-11.264 0-20.48-9.216-20.48-20.48v-40.96c0-11.264 9.216-20.48 20.48-20.48h40.96c11.264 0 20.48 9.216 20.48 20.48v40.96c0 11.264-9.216 20.48-20.48 20.48zM330.24 20.480000000000018h-40.96c-11.264 0-20.48-9.216-20.48-20.48v-40.96c0-11.264 9.216-20.48 20.48-20.48h40.96c11.264 0 20.48 9.216 20.48 20.48v40.96c0 11.264-9.216 20.48-20.48 20.48zM491.52 747.52h40.96c11.264 0 20.48 9.216 20.48 20.48v40.96c0 11.264-9.216 20.48-20.48 20.48h-40.96c-11.264 0-20.48-9.216-20.48-20.48v-40.96c0-11.264 9.216-20.48 20.48-20.48zM693.76 747.52h40.96c11.264 0 20.48 9.216 20.48 20.48v40.96c0 11.264-9.216 20.48-20.48 20.48h-40.96c-11.264 0-20.48-9.216-20.48-20.48v-40.96c0-11.264 9.216-20.48 20.48-20.48zM936.96 829.44h-40.96c-11.264 0-20.48-9.216-20.48-20.48v-40.96c0-11.264 9.216-20.48 20.48-20.48h40.96c11.264 0 20.48 9.216 20.48 20.48v40.96c0 11.264-9.216 20.48-20.48 20.48zM128 627.2h-40.96c-11.264 0-20.48-9.216-20.48-20.48v-40.96c0-11.264 9.216-20.48 20.48-20.48h40.96c11.264 0 20.48 9.216 20.48 20.48v40.96c0 11.264-9.216 20.48-20.48 20.48zM128 424.96h-40.96c-11.264 0-20.48-9.216-20.48-20.48v-40.96c0-11.264 9.216-20.48 20.48-20.48h40.96c11.264 0 20.48 9.216 20.48 20.48v40.96c0 11.264-9.216 20.48-20.48 20.48zM128 222.72000000000003h-40.96c-11.264 0-20.48-9.216-20.48-20.48v-40.96c0-11.264 9.216-20.48 20.48-20.48h40.96c11.264 0 20.48 9.216 20.48 20.48v40.96c0 11.264-9.216 20.48-20.48 20.48zM936.96 627.2h-40.96c-11.264 0-20.48-9.216-20.48-20.48v-40.96c0-11.264 9.216-20.48 20.48-20.48h40.96c11.264 0 20.48 9.216 20.48 20.48v40.96c0 11.264-9.216 20.48-20.48 20.48zM128 20.480000000000018h-40.96c-11.264 0-20.48-9.216-20.48-20.48v-40.96c0-11.264 9.216-20.48 20.48-20.48h40.96c11.264 0 20.48 9.216 20.48 20.48v40.96c0 11.264-9.216 20.48-20.48 20.48zM936.96 435.2h-40.96c-11.264 0-20.48-9.216-20.48-20.48v-168.96c0-124.416-100.864-225.28-225.28-225.28H481.28c-11.264 0-20.48-9.216-20.48-20.48v-40.96c0-11.264 9.216-20.48 20.48-20.48h168.96c169.472 0 307.2 137.728 307.2 307.2V414.72c0 11.264-9.216 20.48-20.48 20.48z"  horiz-adv-x="1024" />
      
      <glyph glyph-name="radius-upright" unicode="&#60172;" d="M128 830.976h-40.96c-11.264 0-20.48-9.216-20.48-20.48v-40.96c0-11.264 9.216-20.48 20.48-20.48h40.96c11.264 0 20.48 9.216 20.48 20.48v40.96c0 11.264-9.216 20.48-20.48 20.48zM330.24 830.976h-40.96c-11.264 0-20.48-9.216-20.48-20.48v-40.96c0-11.264 9.216-20.48 20.48-20.48h40.96c11.264 0 20.48 9.216 20.48 20.48v40.96c0 11.264-9.216 20.48-20.48 20.48zM330.24 22.015999999999963h-40.96c-11.264 0-20.48-9.216-20.48-20.48v-40.96c0-11.264 9.216-20.48 20.48-20.48h40.96c11.264 0 20.48 9.216 20.48 20.48v40.96c0 11.264-9.216 20.48-20.48 20.48zM532.48 22.015999999999963h-40.96c-11.264 0-20.48-9.216-20.48-20.48v-40.96c0-11.264 9.216-20.48 20.48-20.48h40.96c11.264 0 20.48 9.216 20.48 20.48v40.96c0 11.264-9.216 20.48-20.48 20.48zM734.72 22.015999999999963h-40.96c-11.264 0-20.48-9.216-20.48-20.48v-40.96c0-11.264 9.216-20.48 20.48-20.48h40.96c11.264 0 20.48 9.216 20.48 20.48v40.96c0 11.264-9.216 20.48-20.48 20.48zM936.96 22.015999999999963h-40.96c-11.264 0-20.48-9.216-20.48-20.48v-40.96c0-11.264 9.216-20.48 20.48-20.48h40.96c11.264 0 20.48 9.216 20.48 20.48v40.96c0 11.264-9.216 20.48-20.48 20.48zM128 628.736h-40.96c-11.264 0-20.48-9.216-20.48-20.48v-40.96c0-11.264 9.216-20.48 20.48-20.48h40.96c11.264 0 20.48 9.216 20.48 20.48v40.96c0 11.264-9.216 20.48-20.48 20.48zM128 426.496h-40.96c-11.264 0-20.48-9.216-20.48-20.48v-40.96c0-11.264 9.216-20.48 20.48-20.48h40.96c11.264 0 20.48 9.216 20.48 20.48v40.96c0 11.264-9.216 20.48-20.48 20.48zM128 224.25599999999997h-40.96c-11.264 0-20.48-9.216-20.48-20.48v-40.96c0-11.264 9.216-20.48 20.48-20.48h40.96c11.264 0 20.48 9.216 20.48 20.48v40.96c0 11.264-9.216 20.48-20.48 20.48zM936.96 224.25599999999997h-40.96c-11.264 0-20.48-9.216-20.48-20.48v-40.96c0-11.264 9.216-20.48 20.48-20.48h40.96c11.264 0 20.48 9.216 20.48 20.48v40.96c0 11.264-9.216 20.48-20.48 20.48zM128 22.015999999999963h-40.96c-11.264 0-20.48-9.216-20.48-20.48v-40.96c0-11.264 9.216-20.48 20.48-20.48h40.96c11.264 0 20.48 9.216 20.48 20.48v40.96c0 11.264-9.216 20.48-20.48 20.48zM650.24 830.976H481.28c-11.264 0-20.48-9.216-20.48-20.48v-40.96c0-11.264 9.216-20.48 20.48-20.48h168.96c124.416 0 225.28-100.864 225.28-225.28v-168.96c0-11.264 9.216-20.48 20.48-20.48h40.96c11.264 0 20.48 9.216 20.48 20.48v168.96c0 169.472-137.728 307.2-307.2 307.2z"  horiz-adv-x="1024" />
      
      <glyph glyph-name="yulan" unicode="&#59817;" d="M655.36 358.4c65.024 0 117.76-52.736 117.76-117.76s-52.736-117.76-117.76-117.76-117.76 52.736-117.76 117.76 52.736 117.76 117.76 117.76m0 81.92c-110.08 0-199.68-89.6-199.68-199.68s89.6-199.68 199.68-199.68 199.68 89.6 199.68 199.68-89.6 199.68-199.68 199.68zM385.024 20.480000000000018H148.48V747.52h727.04v-236.544c0-22.528 18.432-40.96 40.96-40.96s40.96 18.432 40.96 40.96V747.52c0 45.056-36.864 81.92-81.92 81.92H148.48c-45.056 0-81.92-36.864-81.92-81.92v-727.04c0-45.056 36.864-81.92 81.92-81.92h236.544c22.528 0 40.96 18.432 40.96 40.96s-18.432 40.96-40.96 40.96zM793.088 160.76800000000003L730.624 107.51999999999998l156.672-156.672c8.192-8.192 18.432-11.776 29.184-11.776s20.992 4.096 29.184 11.776c15.872 15.872 15.872 41.984 0 57.856l-152.576 152.064z"  horiz-adv-x="1024" />
      
      <glyph glyph-name="dui" unicode="&#59819;" d="M917.23093333 665.8048c-16.93013333 16.93013333-44.78293333 16.93013333-61.71306666 0l-471.31306667-471.31306667-215.72266667 216.2688c-16.93013333 16.93013333-44.78293333 16.93013333-61.71306666 0s-16.93013333-44.78293333 0-61.71306666L353.62133333 102.1952c16.93013333-16.93013333 44.78293333-16.93013333 61.71306667 0l501.89653333 501.89653333c17.47626667 16.93013333 17.47626667 44.78293333 0 61.71306667z"  horiz-adv-x="1024" />
      
      <glyph glyph-name="Vue3_screen" unicode="&#59820;" d="M861.184 688.64c19.968 28.16 23.04 65.024 7.168 95.744s-47.104 50.176-81.92 50.176H237.568c-34.816 0-66.048-18.944-81.92-50.176S142.336 716.8 162.816 688.64L368.64 421.376V179.20000000000005c0-22.528 18.432-40.96 40.96-40.96s40.96 18.432 40.96 40.96V449.024L228.864 736.768c-2.56 4.096-1.536 7.68-0.512 10.24 1.536 2.56 4.096 5.632 9.216 5.632h548.352c5.12 0 7.68-3.072 9.216-5.632 1.024-2.56 2.048-6.144-0.512-10.24L573.44 449.024V-25.600000000000023c0-22.528 18.432-40.96 40.96-40.96s40.96 18.432 40.96 40.96V421.376l204.8 266.24 1.024 1.024zM837.632 394.752h-113.152c-22.528 0-40.96-18.432-40.96-40.96s18.432-40.96 40.96-40.96h113.152c22.528 0 40.96 18.432 40.96 40.96s-18.432 40.96-40.96 40.96zM837.632 234.49599999999998h-113.152c-22.528 0-40.96-18.432-40.96-40.96s18.432-40.96 40.96-40.96h113.152c22.528 0 40.96 18.432 40.96 40.96s-18.432 40.96-40.96 40.96zM837.632 74.24000000000001h-113.152c-22.528 0-40.96-18.432-40.96-40.96s18.432-40.96 40.96-40.96h113.152c22.528 0 40.96 18.432 40.96 40.96s-18.432 40.96-40.96 40.96z"  horiz-adv-x="1024" />
      
      <glyph glyph-name="yanse" unicode="&#59825;" d="M889.344 461.824l-316.928 316.928-37.888 37.888c-16.896 16.896-43.52 16.896-60.416 0-16.896-16.896-16.896-43.52 0-60.416l37.888-37.888-377.344-377.344c-33.28-33.28-33.28-87.552 0-120.832l256.512-256.512c16.896-16.896 38.4-25.088 60.416-25.088 22.016 0 43.52 8.192 60.416 25.088l377.344 377.344c33.792 33.792 33.792 87.552 0 120.832z m-437.76-437.76l-256.512 256.512 40.96 40.96 404.992-108.544-189.44-188.928z m259.072 259.072L305.664 391.168l266.752 266.752 196.096-196.096 60.416-60.416-118.272-118.272zM893.44 80.38400000000001s-8.704 9.216-12.288 13.824l-43.52 55.808c-4.096 5.632-12.288 5.632-16.896 0l-43.52-55.808c-3.584-4.096-12.288-13.824-12.288-13.824-13.824-15.872-22.016-36.352-21.504-58.88 1.536-44.032 37.376-80.896 81.408-82.432 49.152-2.048 89.6 36.864 89.6 85.504 0 20.992-8.192 40.96-20.992 55.808z"  horiz-adv-x="1024" />
      
      <glyph glyph-name="a-shanchuqingchu" unicode="&#59826;" d="M927.744 379.392c0 76.8-61.952 138.752-138.752 138.752h-70.656c-40.448 0-74.752 34.304-74.752 74.752V701.44c-2.048 70.656-57.344 125.952-128 128h-4.096C438.784 829.44 378.88 772.608 376.832 701.44v-108.544c0-40.448-34.304-74.752-74.752-74.752H234.496c-76.8 0-138.752-61.952-138.752-138.752 0-51.2 27.136-95.744 68.096-119.808v-225.28c0-53.248 42.496-96.256 96.256-96.256h503.296c51.2 2.048 93.696 45.056 93.696 98.304v221.696c42.496 24.064 70.656 69.12 70.656 121.344zM234.496 436.224h68.096c86.528 0 156.672 70.144 156.672 156.672v107.52c1.536 25.6 25.088 47.104 52.736 47.104h1.536c26.624-1.024 47.104-20.992 48.64-47.616v-107.52c0-86.528 70.144-156.672 156.672-156.672h70.656c31.744 0 56.832-25.088 56.832-56.832 0-31.744-25.088-56.832-56.832-56.832H234.496c-31.744 0-56.832 25.088-56.832 56.832 0.512 32.256 25.088 57.344 56.832 57.344zM761.344 20.48H260.096c-8.192 0-14.336 6.144-14.336 14.336V240.64h529.408v-203.776c0.512-9.216-6.656-15.36-13.824-16.384zM738.816-13.824v126.976c0 22.528-18.432 40.96-40.96 40.96s-40.96-18.432-40.96-40.96v-126.976h81.92zM367.104-13.824v126.976c0 22.528-18.432 40.96-40.96 40.96s-40.96-18.432-40.96-40.96v-126.976h81.92zM552.96-13.824v126.976c0 22.528-18.432 40.96-40.96 40.96s-40.96-18.432-40.96-40.96v-126.976h81.92z"  horiz-adv-x="1024" />
      
      <glyph glyph-name="chuizhijianju" unicode="&#59828;" d="M768 343.03999999999996c22.528 0 40.96 18.432 40.96 40.96s-18.432 40.96-40.96 40.96H256c-22.528 0-40.96-18.432-40.96-40.96s18.432-40.96 40.96-40.96h512zM890.88 803.84c-22.528 0-40.96-18.432-40.96-40.96v-115.2H174.08V762.88c0 22.528-18.432 40.96-40.96 40.96s-40.96-18.432-40.96-40.96v-145.92c0-28.16 23.04-51.2 51.2-51.2h737.28c28.16 0 51.2 23.04 51.2 51.2V762.88c0 22.528-18.432 40.96-40.96 40.96zM880.64 202.24H143.36c-28.16 0-51.2-23.04-51.2-51.2V5.1200000000000045c0-22.528 18.432-40.96 40.96-40.96s40.96 18.432 40.96 40.96v115.2h675.84V5.1200000000000045c0-22.528 18.432-40.96 40.96-40.96s40.96 18.432 40.96 40.96v145.92c0 28.16-23.04 51.2-51.2 51.2z"  horiz-adv-x="1024" />
      
      <glyph glyph-name="shuipingjianju" unicode="&#59829;" d="M471.04 128c0-22.528 18.432-40.96 40.96-40.96s40.96 18.432 40.96 40.96V640c0 22.528-18.432 40.96-40.96 40.96s-40.96-18.432-40.96-40.96v-512zM931.84 5.1200000000000045c0 22.528-18.432 40.96-40.96 40.96h-115.2V721.92H890.88c22.528 0 40.96 18.432 40.96 40.96s-18.432 40.96-40.96 40.96h-145.92c-28.16 0-51.2-23.04-51.2-51.2v-737.28c0-28.16 23.04-51.2 51.2-51.2H890.88c22.528 0 40.96 18.432 40.96 40.96zM330.24 15.360000000000014V752.64c0 28.16-23.04 51.2-51.2 51.2H133.12c-22.528 0-40.96-18.432-40.96-40.96s18.432-40.96 40.96-40.96h115.2v-675.84H133.12c-22.528 0-40.96-18.432-40.96-40.96s18.432-40.96 40.96-40.96h145.92c28.16 0 51.2 23.04 51.2 51.2z"  horiz-adv-x="1024" />
      
      <glyph glyph-name="html-" unicode="&#59830;" d="M875.52 783.36H148.48c-45.056 0-81.92-36.864-81.92-81.92v-634.88c0-45.056 36.864-81.92 81.92-81.92h727.04c45.056 0 81.92 36.864 81.92 81.92V701.44c0 45.056-36.864 81.92-81.92 81.92z m0-716.8H148.48V530.944h727.04V66.55999999999995zM148.48 612.864V701.44h727.04v-88.576H148.48zM304.64 339.456c-25.088 0-38.912-8.192-45.568-18.944V396.8H207.36v-207.872h51.712v95.744c1.536 8.192 7.168 13.824 20.992 13.824 16.384 0 20.992-3.072 20.992-20.992V189.44000000000005h51.712v99.84c0 35.328-13.312 50.176-48.128 50.176zM440.32 370.688H388.608v-34.816h-17.408v-39.936h17.408v-58.368c0-38.912 13.824-50.176 52.736-50.176 6.656 0 15.36 0.512 20.992 1.024v38.912c-2.048-0.512-5.632-0.512-8.704-0.512-10.752 0-13.824 3.072-13.824 15.36v54.272H465.92v39.936h-25.6v34.304zM667.136 339.456c-24.576 0-38.912-6.144-46.08-18.432-7.168 13.312-20.48 18.432-40.96 18.432-24.064 0-34.304-7.168-40.96-17.408v14.848H487.424V189.44000000000005h51.712v95.744h-0.512c1.024 8.192 5.12 13.824 18.432 13.824 11.776 0 18.432-3.072 18.432-20.992v-88.064h51.712v92.16c1.536 10.752 6.144 16.896 20.48 16.896 12.288 0 18.432-3.072 18.432-20.992v-88.064h51.712v95.232c-0.512 41.472-18.944 54.272-50.688 54.272zM811.008 227.84000000000003c-8.704 0-11.264 3.584-11.264 15.872V396.8h-51.712v-165.376c0-29.696 9.728-44.032 50.688-44.032 6.144 0 12.288 0.512 18.432 1.536v39.424c-3.072-0.512-4.608-0.512-6.144-0.512z"  horiz-adv-x="1024" />
      
      <glyph glyph-name="chengxu-" unicode="&#59831;" d="M875.52 783.36H148.48c-45.056 0-81.92-36.864-81.92-81.92v-634.88c0-45.056 36.864-81.92 81.92-81.92h727.04c45.056 0 81.92 36.864 81.92 81.92V701.44c0 45.056-36.864 81.92-81.92 81.92z m0-716.8H148.48V530.944h727.04V66.55999999999995zM148.48 612.864V701.44h727.04v-88.576H148.48zM383.488 150.52800000000002c50.176 0 84.48 25.088 84.48 82.432V422.912H407.04v-187.904c0-24.576-5.632-38.4-30.208-38.4-5.12 0-12.8 0.512-19.456 1.536v-46.08c7.68-1.024 17.408-1.536 26.112-1.536zM559.104 296.448c26.624-6.656 30.72-11.776 30.72-20.48 0-13.312-3.584-17.408-28.672-17.408-18.944 0-44.032 4.096-57.856 8.192v-52.736c14.848-3.584 37.888-7.168 61.44-7.168 66.048 0 86.528 25.088 86.528 67.072 0 38.912-6.656 55.808-59.392 69.632-26.624 6.656-31.232 8.704-31.232 18.944s7.68 14.848 27.136 14.848c16.896 0 43.52-4.096 52.736-7.168v48.64c-11.776 4.096-28.672 7.68-55.296 7.68-51.2 0-83.456-15.872-83.456-66.56 0-37.888 10.752-52.736 57.344-63.488z"  horiz-adv-x="1024" />
      
      <glyph glyph-name="yulan1" unicode="&#59832;" d="M875.52 803.84H148.48c-45.056 0-81.92-36.864-81.92-81.92v-512c0-45.056 36.864-81.92 81.92-81.92h727.04c45.056 0 81.92 36.864 81.92 81.92V721.92c0 45.056-36.864 81.92-81.92 81.92z m0-593.92H148.48V721.92h727.04v-512zM742.4 46.08000000000004H281.6c-22.528 0-40.96-18.432-40.96-40.96s18.432-40.96 40.96-40.96h460.8c22.528 0 40.96 18.432 40.96 40.96s-18.432 40.96-40.96 40.96zM442.88 290.304c7.168 0 14.848 2.048 21.504 6.144l209.92 132.096c25.6 15.872 25.6 53.248 0 69.12L464.384 629.76c-7.168 4.608-14.336 6.144-21.504 6.144-21.504 0-40.96-16.896-40.96-40.96v-264.192c0-23.552 19.968-40.448 40.96-40.448z m40.96 231.424l92.16-57.856-92.16-57.856V521.7280000000001z"  horiz-adv-x="1024" />
      
      <glyph glyph-name="gongzuotai" unicode="&#59839;" d="M875.52 803.84H148.48c-45.056 0-81.92-36.864-81.92-81.92v-512c0-45.056 36.864-81.92 81.92-81.92h727.04c45.056 0 81.92 36.864 81.92 81.92V721.92c0 45.056-36.864 81.92-81.92 81.92z m0-593.92H148.48V721.92h727.04v-512zM742.4 46.08000000000004H281.6c-22.528 0-40.96-18.432-40.96-40.96s18.432-40.96 40.96-40.96h460.8c22.528 0 40.96 18.432 40.96 40.96s-18.432 40.96-40.96 40.96zM321.536 296.96000000000004c22.528 0 40.96 18.432 40.96 40.96V542.72c0 22.528-18.432 40.96-40.96 40.96s-40.96-18.432-40.96-40.96v-204.8c0-22.528 18.432-40.96 40.96-40.96zM702.464 296.96000000000004c22.528 0 40.96 18.432 40.96 40.96V593.9200000000001c0 22.528-18.432 40.96-40.96 40.96s-40.96-18.432-40.96-40.96v-256c0-22.528 18.432-40.96 40.96-40.96zM512 296.96000000000004c22.528 0 40.96 18.432 40.96 40.96V440.32c0 22.528-18.432 40.96-40.96 40.96s-40.96-18.432-40.96-40.96v-102.4c0-22.528 18.432-40.96 40.96-40.96z"  horiz-adv-x="1024" />
      
      <glyph glyph-name="kucun" unicode="&#59840;" d="M135.68 496.64h752.64c32.256 0 53.248 32.256 38.912 59.392L819.2 758.784c-14.848 27.648-45.056 45.056-77.824 45.056H282.624c-32.768 0-62.976-17.408-77.824-45.056L96.768 556.0319999999999C82.432 528.896 103.424 496.64 135.68 496.64z m141.312 223.232c0.512 0.512 2.56 2.048 5.632 2.048h458.752c3.072 0 5.12-1.536 5.632-2.048L822.272 578.56H201.728l75.264 141.312zM358.4 272.89599999999996c-22.528 0-40.96-18.432-40.96-40.96s18.432-40.96 40.96-40.96h307.2c22.528 0 40.96 18.432 40.96 40.96s-18.432 40.96-40.96 40.96H358.4zM890.88 428.544c-22.528 0-40.96-18.432-40.96-40.96V46.08000000000004H174.08V387.584c0 22.528-18.432 40.96-40.96 40.96s-40.96-18.432-40.96-40.96V46.08000000000004c0-45.056 36.864-81.92 81.92-81.92h675.84c45.056 0 81.92 36.864 81.92 81.92V387.584c0 22.528-18.432 40.96-40.96 40.96z"  horiz-adv-x="1024" />
      
      <glyph glyph-name="moban" unicode="&#61563;" d="M389.12 803.84H143.36c-45.056 0-81.92-36.864-81.92-81.92v-675.84c0-45.056 36.864-81.92 81.92-81.92h245.76c45.056 0 81.92 36.864 81.92 81.92V721.92c0 45.056-36.864 81.92-81.92 81.92z m0-757.76H143.36V721.92h245.76v-675.84zM880.64 803.84h-245.76c-45.056 0-81.92-36.864-81.92-81.92v-317.44c0-45.056 36.864-81.92 81.92-81.92h245.76c45.056 0 81.92 36.864 81.92 81.92V721.92c0 45.056-36.864 81.92-81.92 81.92z m0-399.36h-245.76V721.92h245.76v-317.44zM880.64 240.64h-245.76c-45.056 0-81.92-36.864-81.92-81.92v-112.64c0-45.056 36.864-81.92 81.92-81.92h245.76c45.056 0 81.92 36.864 81.92 81.92v112.64c0 45.056-36.864 81.92-81.92 81.92z m0-194.56h-245.76v112.64h245.76v-112.64z"  horiz-adv-x="1024" />
      
      <glyph glyph-name="youzengyilie" unicode="&#59844;" d="M875.52 778.24H148.48c-45.056 0-81.92-36.864-81.92-81.92v-624.64c0-45.056 36.864-81.92 81.92-81.92h462.336v0.512c43.008 2.56 76.8 38.4 76.8 81.408V696.32H875.52v-389.12c0-22.528 18.432-40.96 40.96-40.96s40.96 18.432 40.96 40.96V696.32c0 45.056-36.864 81.92-81.92 81.92zM336.384 696.32v-153.6H148.48V696.32h187.904z m0-389.12H148.48V460.8h187.904v-153.6z m81.92 153.6h187.904v-153.6H418.304V460.8zM148.48 225.28h187.904v-153.6H148.48v153.6z m269.824-153.6v153.6h187.904v-153.6H418.304z m187.392 471.04H418.304V696.32h187.904v-153.6zM916.48 158.72h-46.08v46.08c0 22.528-18.432 40.96-40.96 40.96s-40.96-18.432-40.96-40.96v-46.08h-46.08c-22.528 0-40.96-18.432-40.96-40.96s18.432-40.96 40.96-40.96h46.08v-46.08c0-22.528 18.432-40.96 40.96-40.96s40.96 18.432 40.96 40.96v46.08h46.08c22.528 0 40.96 18.432 40.96 40.96s-18.432 40.96-40.96 40.96z"  horiz-adv-x="1024" />
      
      <glyph glyph-name="xiazengyihang" unicode="&#59845;" d="M148.48-10.24h489.984c22.016 0 40.96 16.384 42.496 38.4 1.536 24.064-17.408 43.52-40.96 43.52H148.48v194.56h727.04c45.056 0 81.92 36.864 81.92 81.92V696.32c0 45.056-36.864 81.92-81.92 81.92H148.48c-45.056 0-81.92-36.864-81.92-81.92v-624.64c0-45.056 36.864-81.92 81.92-81.92zM687.616 696.32H875.52v-133.12h-187.904V696.32z m0-215.04H875.52v-133.12h-187.904V481.28zM418.304 696.32h187.904v-133.12H418.304V696.32z m0-215.04h187.904v-133.12H418.304V481.28zM148.48 696.32h187.904v-133.12H148.48V696.32z m0-215.04h187.904v-133.12H148.48V481.28zM916.48 158.72h-46.08v46.08c0 22.528-18.432 40.96-40.96 40.96s-40.96-18.432-40.96-40.96v-46.08h-46.08c-22.528 0-40.96-18.432-40.96-40.96s18.432-40.96 40.96-40.96h46.08v-46.08c0-22.528 18.432-40.96 40.96-40.96s40.96 18.432 40.96 40.96v46.08h46.08c22.528 0 40.96 18.432 40.96 40.96s-18.432 40.96-40.96 40.96z"  horiz-adv-x="1024" />
      
      <glyph glyph-name="zuozengyilie" unicode="&#59846;" d="M875.52 778.24H148.48c-45.056 0-81.92-36.864-81.92-81.92v-389.12c0-22.528 18.432-40.96 40.96-40.96s40.96 18.432 40.96 40.96V696.32h187.904v-624.64c0-43.52 33.792-78.848 76.8-81.408v-0.512H875.52c45.056 0 81.92 36.864 81.92 81.92V696.32c0 45.056-36.864 81.92-81.92 81.92z m0-235.52h-187.904V696.32H875.52v-153.6zM418.304 460.8h187.904v-153.6H418.304V460.8z m269.312 0H875.52v-153.6h-187.904V460.8z m-81.92 235.52v-153.6H418.304V696.32h187.392z m-187.392-471.04h187.904v-153.6H418.304v153.6z m269.312-153.6v153.6H875.52v-153.6h-187.904zM281.6 158.72h-46.08v46.08c0 22.528-18.432 40.96-40.96 40.96s-40.96-18.432-40.96-40.96v-46.08h-46.08c-22.528 0-40.96-18.432-40.96-40.96s18.432-40.96 40.96-40.96h46.08v-46.08c0-22.528 18.432-40.96 40.96-40.96s40.96 18.432 40.96 40.96v46.08h46.08c22.528 0 40.96 18.432 40.96 40.96s-18.432 40.96-40.96 40.96z"  horiz-adv-x="1024" />
      
      <glyph glyph-name="shanchuhang" unicode="&#59847;" d="M107.52 696.32h808.96c22.528 0 40.96 18.432 40.96 40.96s-18.432 40.96-40.96 40.96H107.52c-22.528 0-40.96-18.432-40.96-40.96s18.432-40.96 40.96-40.96zM916.48 71.68H107.52c-22.528 0-40.96-18.432-40.96-40.96s18.432-40.96 40.96-40.96h808.96c22.528 0 40.96 18.432 40.96 40.96s-18.432 40.96-40.96 40.96zM875.52 573.44H440.32c-45.056 0-81.92-36.864-81.92-81.92v-215.04c0-45.056 36.864-81.92 81.92-81.92h435.2c45.056 0 81.92 36.864 81.92 81.92V491.52c0 45.056-36.864 81.92-81.92 81.92z m0-296.96H440.32V491.52h435.2v-215.04zM78.336 293.376c15.872-15.872 41.984-15.872 57.856 0l32.768 32.768 32.768-32.768c15.872-15.872 41.984-15.872 57.856 0s15.872 41.984 0 57.856l-32.768 32.768 32.768 32.768c15.872 15.872 15.872 41.984 0 57.856-15.872 15.872-41.984 15.872-57.856 0L168.96 441.856l-32.768 32.768c-15.872 15.872-41.984 15.872-57.856 0-15.872-15.872-15.872-41.984 0-57.856l32.768-32.768-32.768-32.768c-15.872-15.872-15.872-41.984 0-57.856z"  horiz-adv-x="1024" />
      
      <glyph glyph-name="shangzengyihang" unicode="&#59848;" d="M875.52 778.24H385.536c-22.016 0-40.96-16.384-42.496-38.4-1.536-24.064 17.408-43.52 40.96-43.52h491.52v-194.56H148.48c-45.056 0-81.92-36.864-81.92-81.92v-348.16c0-45.056 36.864-81.92 81.92-81.92h727.04c45.056 0 81.92 36.864 81.92 81.92V696.32c0 45.056-36.864 81.92-81.92 81.92zM336.384 71.68H148.48v133.12h187.904v-133.12z m0 215.04H148.48V419.84h187.904v-133.12z m269.312-215.04H418.304v133.12h187.904v-133.12z m0 215.04H418.304V419.84h187.904v-133.12z m269.824-215.04h-187.904v133.12H875.52v-133.12z m0 215.04h-187.904V419.84H875.52v-133.12zM107.52 609.28h46.08v-46.08c0-22.528 18.432-40.96 40.96-40.96s40.96 18.432 40.96 40.96v46.08h46.08c22.528 0 40.96 18.432 40.96 40.96s-18.432 40.96-40.96 40.96h-46.08v46.08c0 22.528-18.432 40.96-40.96 40.96s-40.96-18.432-40.96-40.96v-46.08h-46.08c-22.528 0-40.96-18.432-40.96-40.96s18.432-40.96 40.96-40.96z"  horiz-adv-x="1024" />
      
      </font>
</defs>
</svg>
